<?xml version="1.0" encoding="utf-8"?>
<!-- Generator: Adobe Illustrator 16.0.0, SVG Export Plug-In . SVG Version: 6.00 Build 0)  -->
<!DOCTYPE svg PUBLIC "-//W3C//DTD SVG 1.1//EN" "http://www.w3.org/Graphics/SVG/1.1/DTD/svg11.dtd">
<svg version="1.1" id="Layer_1" xmlns="http://www.w3.org/2000/svg" xmlns:xlink="http://www.w3.org/1999/xlink" width="60" height="60" viewBox="0 0 60 60"><g transform="scale(0.05859375 0.05859375)"><path d="M819.2 460.8h-614.4c-28.262 0-51.2 22.938-51.2 51.2s22.938 51.2 51.2 51.2h614.4c28.314 0 51.2-22.938 51.2-51.2s-22.886-51.2-51.2-51.2zM204.8 358.4h614.4c28.314 0 51.2-22.938 51.2-51.2s-22.886-51.2-51.2-51.2h-614.4c-28.262 0-51.2 22.938-51.2 51.2s22.938 51.2 51.2 51.2zM819.2 665.6h-614.4c-28.262 0-51.2 22.886-51.2 51.2s22.938 51.2 51.2 51.2h614.4c28.314 0 51.2-22.886 51.2-51.2s-22.886-51.2-51.2-51.2z"></path></g></svg>