<?xml version="1.0" encoding="utf-8"?>
<!-- Generator: Adobe Illustrator 16.0.0, SVG Export Plug-In . SVG Version: 6.00 Build 0)  -->
<!DOCTYPE svg PUBLIC "-//W3C//DTD SVG 1.1//EN" "http://www.w3.org/Graphics/SVG/1.1/DTD/svg11.dtd">
<svg version="1.1" id="Layer_1" xmlns="http://www.w3.org/2000/svg" xmlns:xlink="http://www.w3.org/1999/xlink" x="0px" y="0px"
	 width="50px" height="50px" viewBox="0 0 50 50" enable-background="new 0 0 50 50" xml:space="preserve">
<g>
	<g>
		<g>
			<path fill="#27AE60" d="M29.914,32.547c-0.07-0.084-0.16-0.148-0.27-0.195c-0.11-0.047-0.245-0.07-0.406-0.07
				c-0.151,0-0.284,0.021-0.397,0.064c-0.113,0.044-0.21,0.105-0.289,0.186c-0.079,0.081-0.142,0.18-0.19,0.296
				c-0.048,0.117-0.083,0.247-0.107,0.393h1.88c-0.009-0.136-0.03-0.261-0.064-0.375S29.983,32.632,29.914,32.547z"/>
			<path fill="#27AE60" d="M34.776,12.659h-19.13c-0.976,0-1.773,0.798-1.773,1.774v22.899c0,0.976,0.798,1.773,1.773,1.773h19.13
				c0.977,0,1.773-0.798,1.773-1.773V14.433C36.55,13.457,35.753,12.659,34.776,12.659z M21.984,22.524h3.711v1.157h-3.711V22.524z
				 M24.543,30.545c0,0.063-0.012,0.122-0.036,0.179c-0.024,0.056-0.057,0.105-0.098,0.148c-0.041,0.044-0.089,0.077-0.145,0.102
				c-0.054,0.024-0.112,0.037-0.173,0.037c-0.063,0-0.122-0.013-0.179-0.037c-0.056-0.024-0.104-0.058-0.146-0.102
				c-0.04-0.043-0.073-0.093-0.098-0.148c-0.024-0.057-0.037-0.116-0.037-0.179c0-0.061,0.013-0.118,0.037-0.174
				c0.024-0.054,0.058-0.103,0.098-0.143c0.042-0.041,0.09-0.074,0.146-0.099c0.057-0.024,0.116-0.036,0.179-0.036
				c0.061,0,0.119,0.012,0.173,0.036c0.056,0.024,0.104,0.058,0.145,0.099c0.041,0.04,0.073,0.089,0.098,0.143
				C24.531,30.427,24.543,30.484,24.543,30.545z M16.692,18.443l2.814-1.656l0.976,0.014v8.376h1.078v1.846h-4.37v-1.846h1.07
				v-5.326l-1.568,0.936V18.443z M22.702,35.457h-1.694v-0.603h0.511v-1.656c0-0.277-0.069-0.488-0.21-0.632
				c-0.14-0.144-0.342-0.215-0.605-0.215c-0.156,0-0.316,0.037-0.479,0.111c-0.163,0.075-0.303,0.169-0.421,0.283v2.108h0.502v0.603
				h-1.691v-0.603h0.512v-1.656c0-0.277-0.071-0.488-0.212-0.632c-0.142-0.144-0.344-0.215-0.607-0.215
				c-0.152,0-0.305,0.036-0.459,0.108s-0.3,0.162-0.438,0.27v2.125h0.511v0.603h-1.694v-0.603h0.504v-2.423h-0.504V31.83h1.155
				v0.423h0.007c0.079-0.067,0.163-0.131,0.251-0.19c0.087-0.06,0.179-0.111,0.274-0.155c0.096-0.045,0.195-0.08,0.3-0.105
				c0.104-0.026,0.212-0.039,0.323-0.039c0.262,0,0.487,0.049,0.676,0.146s0.334,0.248,0.438,0.454
				c0.089-0.079,0.182-0.156,0.28-0.23c0.098-0.073,0.2-0.137,0.307-0.19c0.105-0.054,0.217-0.096,0.334-0.13
				c0.117-0.032,0.238-0.049,0.364-0.049c0.195,0,0.372,0.027,0.528,0.081c0.156,0.053,0.289,0.136,0.398,0.245
				c0.11,0.109,0.194,0.25,0.251,0.422c0.058,0.171,0.086,0.373,0.086,0.607v1.736h0.504V35.457z M24.96,35.457h-1.723v-0.603h0.52
				v-2.423h-0.525V31.83h1.183v3.024h0.546V35.457z M27.109,35.457h-1.722v-0.603h0.524v-4.243h-0.524V30.01h1.176v4.845h0.546
				V35.457z M26.786,24.483l2.081-0.565c0.026,0.211,0.083,0.399,0.168,0.565s0.191,0.308,0.319,0.424
				c0.128,0.117,0.276,0.207,0.445,0.27c0.168,0.063,0.349,0.095,0.541,0.095c0.216,0,0.413-0.041,0.593-0.121
				c0.18-0.081,0.332-0.191,0.458-0.334c0.126-0.141,0.224-0.306,0.293-0.495c0.07-0.188,0.104-0.393,0.104-0.612
				c0-0.184-0.036-0.363-0.107-0.538c-0.072-0.175-0.175-0.331-0.311-0.465c-0.134-0.135-0.296-0.243-0.484-0.323
				c-0.188-0.081-0.396-0.121-0.626-0.121c-0.292,0-0.545,0.028-0.758,0.084s-0.431,0.136-0.65,0.239l-1.824-0.337v-5.434h6.484
				v2.061h-4.538v1.911c0.216-0.08,0.448-0.148,0.696-0.205c0.25-0.056,0.518-0.084,0.805-0.084c0.458,0,0.893,0.071,1.304,0.213
				c0.41,0.141,0.771,0.35,1.084,0.626c0.312,0.275,0.56,0.616,0.744,1.02c0.184,0.404,0.276,0.871,0.276,1.401
				c0,0.569-0.102,1.071-0.304,1.504s-0.469,0.796-0.801,1.088c-0.333,0.292-0.711,0.512-1.135,0.659
				c-0.425,0.149-0.859,0.223-1.304,0.223c-0.439,0-0.855-0.058-1.248-0.171c-0.394-0.114-0.746-0.286-1.061-0.516
				c-0.314-0.229-0.581-0.516-0.799-0.858C27.017,25.342,26.867,24.941,26.786,24.483z M28.242,34.009
				c0.016,0.085,0.036,0.167,0.065,0.243c0.086,0.233,0.225,0.409,0.414,0.527c0.19,0.118,0.405,0.176,0.646,0.176
				c0.189,0,0.373-0.025,0.552-0.078s0.366-0.135,0.562-0.247l0.263,0.445c-0.238,0.163-0.478,0.284-0.717,0.363
				c-0.24,0.079-0.49,0.119-0.75,0.119c-0.245,0-0.472-0.04-0.681-0.122s-0.389-0.203-0.539-0.364s-0.269-0.362-0.354-0.602
				c-0.085-0.241-0.128-0.521-0.128-0.841c0-0.259,0.036-0.504,0.108-0.733s0.18-0.431,0.324-0.603
				c0.144-0.171,0.321-0.307,0.534-0.407c0.211-0.101,0.459-0.151,0.742-0.151c0.272,0,0.5,0.043,0.685,0.125
				c0.183,0.082,0.332,0.192,0.448,0.329c0.114,0.137,0.202,0.292,0.262,0.468c0.06,0.175,0.102,0.353,0.124,0.535
				c0.012,0.089,0.02,0.179,0.022,0.27c0.004,0.091,0.006,0.18,0.006,0.267H28.22C28.22,33.83,28.228,33.924,28.242,34.009z
				 M34.384,32.803h-0.717c0-0.098-0.022-0.182-0.068-0.25c-0.046-0.069-0.104-0.125-0.177-0.168s-0.153-0.074-0.241-0.095
				c-0.089-0.02-0.176-0.029-0.259-0.029c-0.095,0-0.181,0.01-0.258,0.031c-0.079,0.021-0.146,0.052-0.201,0.091
				c-0.056,0.04-0.101,0.088-0.132,0.146s-0.047,0.12-0.047,0.19c0,0.121,0.036,0.218,0.109,0.289
				c0.074,0.07,0.197,0.137,0.37,0.197l0.696,0.245c0.299,0.101,0.517,0.237,0.655,0.409c0.138,0.173,0.206,0.38,0.206,0.62
				c0,0.161-0.032,0.309-0.096,0.443c-0.064,0.134-0.156,0.248-0.273,0.343c-0.118,0.095-0.26,0.168-0.426,0.221
				c-0.165,0.052-0.35,0.078-0.553,0.078c-0.282,0-0.513-0.045-0.689-0.136c-0.178-0.092-0.314-0.212-0.41-0.361h-0.363v-0.602
				h0.725c0,0.101,0.021,0.186,0.064,0.257s0.1,0.13,0.171,0.174c0.072,0.044,0.152,0.077,0.242,0.098
				c0.09,0.021,0.182,0.032,0.274,0.032c0.091,0,0.179-0.012,0.263-0.034c0.084-0.021,0.158-0.054,0.223-0.098
				c0.064-0.043,0.115-0.095,0.152-0.156c0.037-0.061,0.056-0.129,0.056-0.206c0-0.116-0.038-0.216-0.114-0.298
				c-0.075-0.082-0.204-0.154-0.386-0.22l-0.693-0.26c-0.283-0.101-0.492-0.228-0.629-0.383c-0.137-0.156-0.204-0.35-0.204-0.583
				c0-0.154,0.028-0.297,0.085-0.427c0.058-0.131,0.141-0.243,0.249-0.339c0.108-0.095,0.241-0.168,0.397-0.222
				s0.335-0.081,0.536-0.081c0.259,0,0.475,0.037,0.65,0.109c0.175,0.072,0.332,0.195,0.473,0.37h0.339V32.803z"/>
		</g>
		<path fill="#2ECC71" d="M30.069,32.845c-0.034-0.114-0.086-0.213-0.155-0.298c-0.07-0.084-0.16-0.148-0.27-0.195
			c-0.11-0.047-0.245-0.07-0.406-0.07c-0.151,0-0.284,0.021-0.397,0.064c-0.113,0.044-0.21,0.105-0.289,0.186
			c-0.079,0.081-0.142,0.18-0.19,0.296c-0.048,0.117-0.083,0.247-0.107,0.393h1.88C30.125,33.084,30.104,32.959,30.069,32.845z"/>
		<path fill="#2ECC71" d="M34.776,39.105c0.977,0,1.773-0.798,1.773-1.773V14.433c0-0.705-0.418-1.312-1.017-1.597l-3.183,3.979
			h1.162v2.061h-2.811l-1.457,1.822c0.137-0.043,0.277-0.082,0.426-0.116c0.25-0.056,0.518-0.084,0.805-0.084
			c0.458,0,0.893,0.071,1.304,0.213c0.41,0.141,0.771,0.35,1.084,0.626c0.312,0.275,0.56,0.616,0.744,1.02
			c0.184,0.404,0.276,0.871,0.276,1.401c0,0.569-0.102,1.071-0.304,1.504s-0.469,0.796-0.801,1.088
			c-0.333,0.292-0.711,0.512-1.135,0.659c-0.425,0.149-0.859,0.223-1.304,0.223c-0.439,0-0.855-0.058-1.248-0.171
			c-0.394-0.114-0.746-0.286-1.061-0.516c-0.314-0.229-0.581-0.516-0.799-0.858c-0.217-0.344-0.366-0.744-0.447-1.202l2.081-0.565
			c0.026,0.211,0.083,0.399,0.168,0.565s0.191,0.308,0.319,0.424c0.128,0.117,0.276,0.207,0.445,0.27
			c0.168,0.063,0.349,0.095,0.541,0.095c0.216,0,0.413-0.041,0.593-0.121c0.18-0.081,0.332-0.191,0.458-0.334
			c0.126-0.141,0.224-0.306,0.293-0.495c0.07-0.188,0.104-0.393,0.104-0.612c0-0.184-0.036-0.363-0.107-0.538
			c-0.072-0.175-0.175-0.331-0.311-0.465c-0.134-0.135-0.296-0.243-0.484-0.323c-0.188-0.081-0.396-0.121-0.626-0.121
			c-0.292,0-0.545,0.028-0.758,0.084s-0.431,0.136-0.65,0.239l-0.974-0.181l-7.623,9.529c0.101-0.049,0.204-0.09,0.314-0.122
			c0.117-0.032,0.238-0.049,0.364-0.049c0.195,0,0.372,0.027,0.528,0.081c0.156,0.053,0.289,0.136,0.398,0.245
			c0.11,0.109,0.194,0.25,0.251,0.422c0.058,0.171,0.086,0.373,0.086,0.607v1.736h0.504v0.603h-1.694v-0.603h0.511v-1.656
			c0-0.277-0.069-0.488-0.21-0.632c-0.14-0.144-0.342-0.215-0.605-0.215c-0.156,0-0.316,0.037-0.479,0.111
			c-0.163,0.075-0.303,0.169-0.421,0.283v2.108h0.502v0.603h-1.691v-0.603h0.512v-1.506l-1.205,1.506l0,0v0.603h-0.481l-2.708,3.385
			c0.269,0.164,0.58,0.264,0.916,0.264H34.776z M31.511,34.466h0.725c0,0.101,0.021,0.186,0.064,0.257s0.1,0.13,0.171,0.174
			c0.072,0.044,0.152,0.077,0.242,0.098c0.09,0.021,0.182,0.032,0.274,0.032c0.091,0,0.179-0.012,0.263-0.034
			c0.084-0.021,0.158-0.054,0.223-0.098c0.064-0.043,0.115-0.095,0.152-0.156c0.037-0.061,0.056-0.129,0.056-0.206
			c0-0.116-0.038-0.216-0.114-0.298c-0.075-0.082-0.204-0.154-0.386-0.22l-0.693-0.26c-0.283-0.101-0.492-0.228-0.629-0.383
			c-0.137-0.156-0.204-0.35-0.204-0.583c0-0.154,0.028-0.297,0.085-0.427c0.058-0.131,0.141-0.243,0.249-0.339
			c0.108-0.095,0.241-0.168,0.397-0.222s0.335-0.081,0.536-0.081c0.259,0,0.475,0.037,0.65,0.109
			c0.175,0.072,0.332,0.195,0.473,0.37h0.339v0.603h-0.717c0-0.098-0.022-0.182-0.068-0.25c-0.046-0.069-0.104-0.125-0.177-0.168
			s-0.153-0.074-0.241-0.095c-0.089-0.02-0.176-0.029-0.259-0.029c-0.095,0-0.181,0.01-0.258,0.031
			c-0.079,0.021-0.146,0.052-0.201,0.091c-0.056,0.04-0.101,0.088-0.132,0.146s-0.047,0.12-0.047,0.19
			c0,0.121,0.036,0.218,0.109,0.289c0.074,0.07,0.197,0.137,0.37,0.197l0.696,0.245c0.299,0.101,0.517,0.237,0.655,0.409
			c0.138,0.173,0.206,0.38,0.206,0.62c0,0.161-0.032,0.309-0.096,0.443c-0.064,0.134-0.156,0.248-0.273,0.343
			c-0.118,0.095-0.26,0.168-0.426,0.221c-0.165,0.052-0.35,0.078-0.553,0.078c-0.282,0-0.513-0.045-0.689-0.136
			c-0.178-0.092-0.314-0.212-0.41-0.361h-0.363V34.466z M27.684,32.896c0.072-0.229,0.18-0.431,0.324-0.603
			c0.144-0.171,0.321-0.307,0.534-0.407c0.211-0.101,0.459-0.151,0.742-0.151c0.272,0,0.5,0.043,0.685,0.125
			c0.183,0.082,0.332,0.192,0.448,0.329c0.114,0.137,0.202,0.292,0.262,0.468c0.06,0.175,0.102,0.353,0.124,0.535
			c0.012,0.089,0.02,0.179,0.022,0.27c0.004,0.091,0.006,0.18,0.006,0.267H28.22c0,0.103,0.008,0.196,0.022,0.281
			c0.016,0.085,0.036,0.167,0.065,0.243c0.086,0.233,0.225,0.409,0.414,0.527c0.19,0.118,0.405,0.176,0.646,0.176
			c0.189,0,0.373-0.025,0.552-0.078s0.366-0.135,0.562-0.247l0.263,0.445c-0.238,0.163-0.478,0.284-0.717,0.363
			c-0.24,0.079-0.49,0.119-0.75,0.119c-0.245,0-0.472-0.04-0.681-0.122s-0.389-0.203-0.539-0.364s-0.269-0.362-0.354-0.602
			c-0.085-0.241-0.128-0.521-0.128-0.841C27.575,33.37,27.611,33.125,27.684,32.896z M25.388,34.854h0.524v-4.243h-0.524V30.01
			h1.176v4.845h0.546v0.603h-1.722V34.854z M23.67,30.371c0.024-0.054,0.058-0.103,0.098-0.143c0.042-0.041,0.09-0.074,0.146-0.099
			c0.057-0.024,0.116-0.036,0.179-0.036c0.061,0,0.119,0.012,0.173,0.036c0.056,0.024,0.104,0.058,0.145,0.099
			c0.041,0.04,0.073,0.089,0.098,0.143c0.024,0.056,0.036,0.113,0.036,0.174c0,0.063-0.012,0.122-0.036,0.179
			c-0.024,0.056-0.057,0.105-0.098,0.148c-0.041,0.044-0.089,0.077-0.145,0.102c-0.054,0.024-0.112,0.037-0.173,0.037
			c-0.063,0-0.122-0.013-0.179-0.037c-0.056-0.024-0.104-0.058-0.146-0.102c-0.04-0.043-0.073-0.093-0.098-0.148
			c-0.024-0.057-0.037-0.116-0.037-0.179C23.633,30.484,23.646,30.427,23.67,30.371z M23.231,31.83h1.183v3.024h0.546v0.603h-1.723
			v-0.603h0.52v-2.423h-0.525V31.83z"/>
		<path fill="#2ECC71" d="M35.464,42.86c2.444,0,4.434-1.989,4.434-4.435V13.337c0-1.491-0.742-2.81-1.875-3.614l-1.109,1.387
			c0.729,0.476,1.211,1.296,1.211,2.228v25.088c0,1.468-1.194,2.66-2.66,2.66H14.961c-0.6,0-1.151-0.201-1.597-0.537l-1.106,1.384
			c0.75,0.579,1.686,0.928,2.703,0.928h7.031v6.926c0.453,0.059,0.909,0.104,1.369,0.139v-5.4h1.851V50
			c1.088,0,2.158-0.077,3.209-0.212V42.86H35.464z"/>
		<g>
			<path fill="#27AE60" d="M35.464,8.903H14.961c-2.445,0-4.435,1.989-4.435,4.434v25.088c0,2.445,1.99,4.435,4.435,4.435h7.031
				h6.429h7.043c2.444,0,4.434-1.989,4.434-4.435V13.337C39.897,10.893,37.908,8.903,35.464,8.903z M38.124,38.426
				c0,1.468-1.194,2.66-2.66,2.66H14.961c-1.468,0-2.66-1.192-2.66-2.66V13.337c0-1.467,1.192-2.66,2.66-2.66h20.503
				c1.466,0,2.66,1.193,2.66,2.66V38.426z"/>
			<path fill="#27AE60" d="M29.914,32.547c-0.07-0.084-0.16-0.148-0.27-0.195c-0.11-0.047-0.245-0.07-0.406-0.07
				c-0.151,0-0.284,0.021-0.397,0.064c-0.113,0.044-0.21,0.105-0.289,0.186c-0.079,0.081-0.142,0.18-0.19,0.296
				c-0.048,0.117-0.083,0.247-0.107,0.393h1.88c-0.009-0.136-0.03-0.261-0.064-0.375S29.983,32.632,29.914,32.547z"/>
			<path fill="#27AE60" d="M34.776,12.659h-19.13c-0.976,0-1.773,0.798-1.773,1.774v22.899c0,0.976,0.798,1.773,1.773,1.773h19.13
				c0.977,0,1.773-0.798,1.773-1.773V14.433C36.55,13.457,35.753,12.659,34.776,12.659z M21.984,22.524h3.711v1.157h-3.711V22.524z
				 M24.543,30.545c0,0.063-0.012,0.122-0.036,0.179c-0.024,0.056-0.057,0.105-0.098,0.148c-0.041,0.044-0.089,0.077-0.145,0.102
				c-0.054,0.024-0.112,0.037-0.173,0.037c-0.063,0-0.122-0.013-0.179-0.037c-0.056-0.024-0.104-0.058-0.146-0.102
				c-0.04-0.043-0.073-0.093-0.098-0.148c-0.024-0.057-0.037-0.116-0.037-0.179c0-0.061,0.013-0.118,0.037-0.174
				c0.024-0.054,0.058-0.103,0.098-0.143c0.042-0.041,0.09-0.074,0.146-0.099c0.057-0.024,0.116-0.036,0.179-0.036
				c0.061,0,0.119,0.012,0.173,0.036c0.056,0.024,0.104,0.058,0.145,0.099c0.041,0.04,0.073,0.089,0.098,0.143
				C24.531,30.427,24.543,30.484,24.543,30.545z M16.692,18.443l2.814-1.656l0.976,0.014v8.376h1.078v1.846h-4.37v-1.846h1.07
				v-5.326l-1.568,0.936V18.443z M22.702,35.457h-1.694v-0.603h0.511v-1.656c0-0.277-0.069-0.488-0.21-0.632
				c-0.14-0.144-0.342-0.215-0.605-0.215c-0.156,0-0.316,0.037-0.479,0.111c-0.163,0.075-0.303,0.169-0.421,0.283v2.108h0.502v0.603
				h-1.691v-0.603h0.512v-1.656c0-0.277-0.071-0.488-0.212-0.632c-0.142-0.144-0.344-0.215-0.607-0.215
				c-0.152,0-0.305,0.036-0.459,0.108s-0.3,0.162-0.438,0.27v2.125h0.511v0.603h-1.694v-0.603h0.504v-2.423h-0.504V31.83h1.155
				v0.423h0.007c0.079-0.067,0.163-0.131,0.251-0.19c0.087-0.06,0.179-0.111,0.274-0.155c0.096-0.045,0.195-0.08,0.3-0.105
				c0.104-0.026,0.212-0.039,0.323-0.039c0.262,0,0.487,0.049,0.676,0.146s0.334,0.248,0.438,0.454
				c0.089-0.079,0.182-0.156,0.28-0.23c0.098-0.073,0.2-0.137,0.307-0.19c0.105-0.054,0.217-0.096,0.334-0.13
				c0.117-0.032,0.238-0.049,0.364-0.049c0.195,0,0.372,0.027,0.528,0.081c0.156,0.053,0.289,0.136,0.398,0.245
				c0.11,0.109,0.194,0.25,0.251,0.422c0.058,0.171,0.086,0.373,0.086,0.607v1.736h0.504V35.457z M24.96,35.457h-1.723v-0.603h0.52
				v-2.423h-0.525V31.83h1.183v3.024h0.546V35.457z M27.109,35.457h-1.722v-0.603h0.524v-4.243h-0.524V30.01h1.176v4.845h0.546
				V35.457z M26.786,24.483l2.081-0.565c0.026,0.211,0.083,0.399,0.168,0.565s0.191,0.308,0.319,0.424
				c0.128,0.117,0.276,0.207,0.445,0.27c0.168,0.063,0.349,0.095,0.541,0.095c0.216,0,0.413-0.041,0.593-0.121
				c0.18-0.081,0.332-0.191,0.458-0.334c0.126-0.141,0.224-0.306,0.293-0.495c0.07-0.188,0.104-0.393,0.104-0.612
				c0-0.184-0.036-0.363-0.107-0.538c-0.072-0.175-0.175-0.331-0.311-0.465c-0.134-0.135-0.296-0.243-0.484-0.323
				c-0.188-0.081-0.396-0.121-0.626-0.121c-0.292,0-0.545,0.028-0.758,0.084s-0.431,0.136-0.65,0.239l-1.824-0.337v-5.434h6.484
				v2.061h-4.538v1.911c0.216-0.08,0.448-0.148,0.696-0.205c0.25-0.056,0.518-0.084,0.805-0.084c0.458,0,0.893,0.071,1.304,0.213
				c0.41,0.141,0.771,0.35,1.084,0.626c0.312,0.275,0.56,0.616,0.744,1.02c0.184,0.404,0.276,0.871,0.276,1.401
				c0,0.569-0.102,1.071-0.304,1.504s-0.469,0.796-0.801,1.088c-0.333,0.292-0.711,0.512-1.135,0.659
				c-0.425,0.149-0.859,0.223-1.304,0.223c-0.439,0-0.855-0.058-1.248-0.171c-0.394-0.114-0.746-0.286-1.061-0.516
				c-0.314-0.229-0.581-0.516-0.799-0.858C27.017,25.342,26.867,24.941,26.786,24.483z M28.242,34.009
				c0.016,0.085,0.036,0.167,0.065,0.243c0.086,0.233,0.225,0.409,0.414,0.527c0.19,0.118,0.405,0.176,0.646,0.176
				c0.189,0,0.373-0.025,0.552-0.078s0.366-0.135,0.562-0.247l0.263,0.445c-0.238,0.163-0.478,0.284-0.717,0.363
				c-0.24,0.079-0.49,0.119-0.75,0.119c-0.245,0-0.472-0.04-0.681-0.122s-0.389-0.203-0.539-0.364s-0.269-0.362-0.354-0.602
				c-0.085-0.241-0.128-0.521-0.128-0.841c0-0.259,0.036-0.504,0.108-0.733s0.18-0.431,0.324-0.603
				c0.144-0.171,0.321-0.307,0.534-0.407c0.211-0.101,0.459-0.151,0.742-0.151c0.272,0,0.5,0.043,0.685,0.125
				c0.183,0.082,0.332,0.192,0.448,0.329c0.114,0.137,0.202,0.292,0.262,0.468c0.06,0.175,0.102,0.353,0.124,0.535
				c0.012,0.089,0.02,0.179,0.022,0.27c0.004,0.091,0.006,0.18,0.006,0.267H28.22C28.22,33.83,28.228,33.924,28.242,34.009z
				 M34.384,32.803h-0.717c0-0.098-0.022-0.182-0.068-0.25c-0.046-0.069-0.104-0.125-0.177-0.168s-0.153-0.074-0.241-0.095
				c-0.089-0.02-0.176-0.029-0.259-0.029c-0.095,0-0.181,0.01-0.258,0.031c-0.079,0.021-0.146,0.052-0.201,0.091
				c-0.056,0.04-0.101,0.088-0.132,0.146s-0.047,0.12-0.047,0.19c0,0.121,0.036,0.218,0.109,0.289
				c0.074,0.07,0.197,0.137,0.37,0.197l0.696,0.245c0.299,0.101,0.517,0.237,0.655,0.409c0.138,0.173,0.206,0.38,0.206,0.62
				c0,0.161-0.032,0.309-0.096,0.443c-0.064,0.134-0.156,0.248-0.273,0.343c-0.118,0.095-0.26,0.168-0.426,0.221
				c-0.165,0.052-0.35,0.078-0.553,0.078c-0.282,0-0.513-0.045-0.689-0.136c-0.178-0.092-0.314-0.212-0.41-0.361h-0.363v-0.602
				h0.725c0,0.101,0.021,0.186,0.064,0.257s0.1,0.13,0.171,0.174c0.072,0.044,0.152,0.077,0.242,0.098
				c0.09,0.021,0.182,0.032,0.274,0.032c0.091,0,0.179-0.012,0.263-0.034c0.084-0.021,0.158-0.054,0.223-0.098
				c0.064-0.043,0.115-0.095,0.152-0.156c0.037-0.061,0.056-0.129,0.056-0.206c0-0.116-0.038-0.216-0.114-0.298
				c-0.075-0.082-0.204-0.154-0.386-0.22l-0.693-0.26c-0.283-0.101-0.492-0.228-0.629-0.383c-0.137-0.156-0.204-0.35-0.204-0.583
				c0-0.154,0.028-0.297,0.085-0.427c0.058-0.131,0.141-0.243,0.249-0.339c0.108-0.095,0.241-0.168,0.397-0.222
				s0.335-0.081,0.536-0.081c0.259,0,0.475,0.037,0.65,0.109c0.175,0.072,0.332,0.195,0.473,0.37h0.339V32.803z"/>
		</g>
		<path fill="#2ECC71" d="M30.069,32.845c-0.034-0.114-0.086-0.213-0.155-0.298c-0.07-0.084-0.16-0.148-0.27-0.195
			c-0.11-0.047-0.245-0.07-0.406-0.07c-0.151,0-0.284,0.021-0.397,0.064c-0.113,0.044-0.21,0.105-0.289,0.186
			c-0.079,0.081-0.142,0.18-0.19,0.296c-0.048,0.117-0.083,0.247-0.107,0.393h1.88C30.125,33.084,30.104,32.959,30.069,32.845z"/>
		<path fill="#2ECC71" d="M34.776,39.105c0.977,0,1.773-0.798,1.773-1.773V14.433c0-0.705-0.418-1.312-1.017-1.597l-3.183,3.979
			h1.162v2.061h-2.811l-1.457,1.822c0.137-0.043,0.277-0.082,0.426-0.116c0.25-0.056,0.518-0.084,0.805-0.084
			c0.458,0,0.893,0.071,1.304,0.213c0.41,0.141,0.771,0.35,1.084,0.626c0.312,0.275,0.56,0.616,0.744,1.02
			c0.184,0.404,0.276,0.871,0.276,1.401c0,0.569-0.102,1.071-0.304,1.504s-0.469,0.796-0.801,1.088
			c-0.333,0.292-0.711,0.512-1.135,0.659c-0.425,0.149-0.859,0.223-1.304,0.223c-0.439,0-0.855-0.058-1.248-0.171
			c-0.394-0.114-0.746-0.286-1.061-0.516c-0.314-0.229-0.581-0.516-0.799-0.858c-0.217-0.344-0.366-0.744-0.447-1.202l2.081-0.565
			c0.026,0.211,0.083,0.399,0.168,0.565s0.191,0.308,0.319,0.424c0.128,0.117,0.276,0.207,0.445,0.27
			c0.168,0.063,0.349,0.095,0.541,0.095c0.216,0,0.413-0.041,0.593-0.121c0.18-0.081,0.332-0.191,0.458-0.334
			c0.126-0.141,0.224-0.306,0.293-0.495c0.07-0.188,0.104-0.393,0.104-0.612c0-0.184-0.036-0.363-0.107-0.538
			c-0.072-0.175-0.175-0.331-0.311-0.465c-0.134-0.135-0.296-0.243-0.484-0.323c-0.188-0.081-0.396-0.121-0.626-0.121
			c-0.292,0-0.545,0.028-0.758,0.084s-0.431,0.136-0.65,0.239l-0.974-0.181l-7.623,9.529c0.101-0.049,0.204-0.09,0.314-0.122
			c0.117-0.032,0.238-0.049,0.364-0.049c0.195,0,0.372,0.027,0.528,0.081c0.156,0.053,0.289,0.136,0.398,0.245
			c0.11,0.109,0.194,0.25,0.251,0.422c0.058,0.171,0.086,0.373,0.086,0.607v1.736h0.504v0.603h-1.694v-0.603h0.511v-1.656
			c0-0.277-0.069-0.488-0.21-0.632c-0.14-0.144-0.342-0.215-0.605-0.215c-0.156,0-0.316,0.037-0.479,0.111
			c-0.163,0.075-0.303,0.169-0.421,0.283v2.108h0.502v0.603h-1.691v-0.603h0.512v-1.506l-1.205,1.506l0,0v0.603h-0.481l-2.708,3.385
			c0.269,0.164,0.58,0.264,0.916,0.264H34.776z M31.511,34.466h0.725c0,0.101,0.021,0.186,0.064,0.257s0.1,0.13,0.171,0.174
			c0.072,0.044,0.152,0.077,0.242,0.098c0.09,0.021,0.182,0.032,0.274,0.032c0.091,0,0.179-0.012,0.263-0.034
			c0.084-0.021,0.158-0.054,0.223-0.098c0.064-0.043,0.115-0.095,0.152-0.156c0.037-0.061,0.056-0.129,0.056-0.206
			c0-0.116-0.038-0.216-0.114-0.298c-0.075-0.082-0.204-0.154-0.386-0.22l-0.693-0.26c-0.283-0.101-0.492-0.228-0.629-0.383
			c-0.137-0.156-0.204-0.35-0.204-0.583c0-0.154,0.028-0.297,0.085-0.427c0.058-0.131,0.141-0.243,0.249-0.339
			c0.108-0.095,0.241-0.168,0.397-0.222s0.335-0.081,0.536-0.081c0.259,0,0.475,0.037,0.65,0.109
			c0.175,0.072,0.332,0.195,0.473,0.37h0.339v0.603h-0.717c0-0.098-0.022-0.182-0.068-0.25c-0.046-0.069-0.104-0.125-0.177-0.168
			s-0.153-0.074-0.241-0.095c-0.089-0.02-0.176-0.029-0.259-0.029c-0.095,0-0.181,0.01-0.258,0.031
			c-0.079,0.021-0.146,0.052-0.201,0.091c-0.056,0.04-0.101,0.088-0.132,0.146s-0.047,0.12-0.047,0.19
			c0,0.121,0.036,0.218,0.109,0.289c0.074,0.07,0.197,0.137,0.37,0.197l0.696,0.245c0.299,0.101,0.517,0.237,0.655,0.409
			c0.138,0.173,0.206,0.38,0.206,0.62c0,0.161-0.032,0.309-0.096,0.443c-0.064,0.134-0.156,0.248-0.273,0.343
			c-0.118,0.095-0.26,0.168-0.426,0.221c-0.165,0.052-0.35,0.078-0.553,0.078c-0.282,0-0.513-0.045-0.689-0.136
			c-0.178-0.092-0.314-0.212-0.41-0.361h-0.363V34.466z M27.684,32.896c0.072-0.229,0.18-0.431,0.324-0.603
			c0.144-0.171,0.321-0.307,0.534-0.407c0.211-0.101,0.459-0.151,0.742-0.151c0.272,0,0.5,0.043,0.685,0.125
			c0.183,0.082,0.332,0.192,0.448,0.329c0.114,0.137,0.202,0.292,0.262,0.468c0.06,0.175,0.102,0.353,0.124,0.535
			c0.012,0.089,0.02,0.179,0.022,0.27c0.004,0.091,0.006,0.18,0.006,0.267H28.22c0,0.103,0.008,0.196,0.022,0.281
			c0.016,0.085,0.036,0.167,0.065,0.243c0.086,0.233,0.225,0.409,0.414,0.527c0.19,0.118,0.405,0.176,0.646,0.176
			c0.189,0,0.373-0.025,0.552-0.078s0.366-0.135,0.562-0.247l0.263,0.445c-0.238,0.163-0.478,0.284-0.717,0.363
			c-0.24,0.079-0.49,0.119-0.75,0.119c-0.245,0-0.472-0.04-0.681-0.122s-0.389-0.203-0.539-0.364s-0.269-0.362-0.354-0.602
			c-0.085-0.241-0.128-0.521-0.128-0.841C27.575,33.37,27.611,33.125,27.684,32.896z M25.388,34.854h0.524v-4.243h-0.524V30.01
			h1.176v4.845h0.546v0.603h-1.722V34.854z M23.67,30.371c0.024-0.054,0.058-0.103,0.098-0.143c0.042-0.041,0.09-0.074,0.146-0.099
			c0.057-0.024,0.116-0.036,0.179-0.036c0.061,0,0.119,0.012,0.173,0.036c0.056,0.024,0.104,0.058,0.145,0.099
			c0.041,0.04,0.073,0.089,0.098,0.143c0.024,0.056,0.036,0.113,0.036,0.174c0,0.063-0.012,0.122-0.036,0.179
			c-0.024,0.056-0.057,0.105-0.098,0.148c-0.041,0.044-0.089,0.077-0.145,0.102c-0.054,0.024-0.112,0.037-0.173,0.037
			c-0.063,0-0.122-0.013-0.179-0.037c-0.056-0.024-0.104-0.058-0.146-0.102c-0.04-0.043-0.073-0.093-0.098-0.148
			c-0.024-0.057-0.037-0.116-0.037-0.179C23.633,30.484,23.646,30.427,23.67,30.371z M23.231,31.83h1.183v3.024h0.546v0.603h-1.723
			v-0.603h0.52v-2.423h-0.525V31.83z"/>
		<path fill="#2ECC71" d="M35.464,42.86c2.444,0,4.434-1.989,4.434-4.435V13.337c0-1.491-0.742-2.81-1.875-3.614l-1.109,1.387
			c0.729,0.476,1.211,1.296,1.211,2.228v25.088c0,1.468-1.194,2.66-2.66,2.66H14.961c-0.6,0-1.151-0.201-1.597-0.537l-1.106,1.384
			c0.75,0.579,1.686,0.928,2.703,0.928h7.031v6.926c0.453,0.059,0.909,0.104,1.369,0.139v-5.4h1.851V50
			c1.088,0,2.158-0.077,3.209-0.212V42.86H35.464z"/>
	</g>
</g>
</svg>
