<?xml version="1.0" encoding="utf-8"?>
<!-- Generator: Adobe Illustrator 16.0.0, SVG Export Plug-In . SVG Version: 6.00 Build 0)  -->
<!DOCTYPE svg PUBLIC "-//W3C//DTD SVG 1.1//EN" "http://www.w3.org/Graphics/SVG/1.1/DTD/svg11.dtd">
<svg version="1.1" id="Layer_1" xmlns="http://www.w3.org/2000/svg" xmlns:xlink="http://www.w3.org/1999/xlink" x="0px" y="0px"
	 width="50px" height="50px" viewBox="0 0 50 50" enable-background="new 0 0 50 50" xml:space="preserve">
<g>
	<g>
		<g>
			<path fill="#27AE60" d="M32.174,15.431c-0.104-0.269-0.312-0.674-0.923-0.674h-2.787c-0.35,0-0.632,0.283-0.632,0.632
				c0,0.348,0.282,0.631,0.632,0.631v0.001c0.589,0.001,1.411,0,2.001,0h0.563c0.129,0.325,0.256,0.645,0.383,0.965l0.92-1.15
				C32.271,15.686,32.218,15.547,32.174,15.431z"/>
			<g>
				<g>
					<path fill="#27AE60" d="M19.525,19.604h9.792l1.05-1.314H18.845l-0.315-0.636c0,0,0.505,0.007,0.732,0
						c0.556-0.02,1.113-0.015,1.662-0.079c0.428-0.05,0.524-0.181,0.56-0.702c0.014-0.172-0.065-0.294-0.229-0.354
						c-0.081-0.03-0.165-0.061-0.251-0.069c-0.648-0.066-1.299-0.138-1.951-0.183c-0.91-0.063-1.799-0.196-2.618-0.63
						c-0.067-0.035-0.139-0.063-0.211-0.088c-0.433-0.161-0.794,0.008-1.115,0.273c-0.096,0.08-0.162,0.245-0.166,0.374
						c-0.005,0.178,0.027,0.376,0.106,0.534c0.273,0.544,0.718,0.903,1.316,1.033c0.248,0.053,0.796,0.042,0.796,0.042l0.539,1.054
						l-1.826,3.276c-0.884-0.414-1.87-0.645-2.91-0.645c-3.797,0-6.877,3.078-6.877,6.875c0,3.797,3.08,6.877,6.877,6.877
						c3.403,0,6.228-2.473,6.777-5.719c0.632,0.047,1.176,0.086,1.55,0.113l2.079-2.6C22.102,24.584,20.823,22.111,19.525,19.604z
						 M12.963,34.043c-3.137,0-5.678-2.543-5.678-5.678c0-3.136,2.541-5.678,5.678-5.678c0.828,0,1.615,0.178,2.324,0.497
						l-2.274,4.076c0,0-0.184,0.271-0.36,0.348c-0.485,0.211-0.665,0.746-0.436,1.203c0.242,0.48,0.782,0.66,1.247,0.389
						c0.164-0.096,0.496-0.105,0.496-0.105s2.425,0.18,4.579,0.34C18.04,32.059,15.732,34.043,12.963,34.043z M14.163,27.816
						l2.223-3.981c1.318,0.998,2.188,2.557,2.251,4.323C16.522,27.996,14.163,27.816,14.163,27.816z M19.838,28.25
						c-0.038-2.252-1.157-4.243-2.864-5.469l1.431-2.565c0,0,2.586,4.998,3.879,7.499c-0.201,0.191-0.363,0.426-0.474,0.686
						C21.551,28.381,20.787,28.322,19.838,28.25z"/>
				</g>
			</g>
		</g>
	</g>
	<path fill="#2ECC71" d="M37.038,21.49c-0.825,0-1.616,0.145-2.35,0.411c-0.881-2.265-1.855-4.768-2.358-6.064l-0.92,1.15
		c0.171,0.431,0.338,0.862,0.496,1.303h-1.539l-1.05,1.314h3.112c0.076,0.202,0.151,0.4,0.228,0.607
		c-2.69,2.424-5.36,4.831-7.987,7.197c-0.292-0.162-0.628-0.254-0.985-0.254c-0.084,0-0.166,0.004-0.248,0.014
		c-0.022-0.043-0.045-0.086-0.067-0.131l-2.079,2.6c0.187,0.014,0.334,0.025,0.422,0.031c0.217,0.889,1.018,1.547,1.973,1.547
		c1.121,0,2.03-0.91,2.03-2.031c0-0.297-0.064-0.58-0.18-0.836c2.592-2.334,7.625-6.871,7.625-6.871s0.152,0.394,0.376,0.97
		c-2.021,1.198-3.374,3.401-3.374,5.918c0,3.797,3.078,6.877,6.876,6.877c3.797,0,6.876-3.08,6.876-6.877
		C43.914,24.568,40.835,21.49,37.038,21.49z M37.038,34.043c-3.136,0-5.678-2.543-5.678-5.678c0-2.008,1.042-3.772,2.615-4.782
		c0.494,1.281,1.071,2.764,1.274,3.268c0.146,0.361,0.341,0.705,0.537,1.043c0.163,0.277,0.378,0.51,0.451,0.852
		c0.078,0.363,0.441,0.57,0.825,0.572c0.366,0.002,0.691-0.209,0.83-0.535c0.149-0.35,0.091-0.744-0.195-0.99
		c-0.167-0.141-0.386-0.223-0.581-0.33c-0.301-0.273-0.515-0.625-0.664-1.016c-0.147-0.385-0.681-1.757-1.33-3.428
		c0.598-0.214,1.242-0.332,1.915-0.332c3.136,0,5.678,2.542,5.678,5.678C42.716,31.5,40.174,34.043,37.038,34.043z"/>
</g>
</svg>
