<?xml version="1.0" encoding="utf-8"?>
<!-- Generator: Adobe Illustrator 16.0.0, SVG Export Plug-In . SVG Version: 6.00 Build 0)  -->
<!DOCTYPE svg PUBLIC "-//W3C//DTD SVG 1.1//EN" "http://www.w3.org/Graphics/SVG/1.1/DTD/svg11.dtd">
<svg version="1.1" id="Layer_1" xmlns="http://www.w3.org/2000/svg" xmlns:xlink="http://www.w3.org/1999/xlink" x="0px" y="0px"
	 width="50px" height="50px" viewBox="0 0 50 50" enable-background="new 0 0 50 50" xml:space="preserve">
<g>
	<g>
		<g>
			<circle fill="#16A085" cx="21.163" cy="15.762" r="1.825"/>
			<circle fill="#16A085" cx="28.423" cy="15.761" r="1.824"/>
			<path fill="#16A085" d="M10.912,19.5c1.7,0,1.111,1.014,1.536,1.014s0.851-0.49,0.851-1.145c0-0.654-0.654-0.065-0.654-1.373
				c0-1.308-0.787-1.111-0.98-1.111c-0.654,0-2.583,0.555-2.583,1.863C9.081,19.827,10.192,19.5,10.912,19.5z"/>
			<path fill="#16A085" d="M15.488,33.621c-0.654-0.032-2.158-0.457-2.615-1.177c-0.458-0.719-0.752-0.359-0.752,0.752
				s1.178,1.471,1.961,1.471C15.979,34.667,16.142,33.654,15.488,33.621z"/>
			<path fill="#16A085" d="M18.888,29.96h0.632l0.445-0.556c-0.468,0-0.842,0-1.077,0c0.42-1.726,1.368-2.268,3.027-2.438
				l6.933-8.665c-0.134-0.014-0.273-0.023-0.425-0.023c-1.772,0-2.253,0.956-2.383,1.494h-2.494c-0.13-0.538-0.61-1.493-2.383-1.493
				c-1.771,0-2.251,0.955-2.382,1.493h-2.879c0,0,0.914-6.538,4.489-6.538c3.573,0,5.229,0,8.803,0c1.081,0,1.917,0.6,2.561,1.434
				l1.504-1.88c-0.602-1.043-1.44-1.656-2.821-1.656c-2.845,0-8.444,0-11.288,0s-3.399,2.583-4.282,6.211
				c-1.21,5.688-3.203,5.622-3.203,8.564c0,5.377,2.615,6.785,5.392,7.134l2.021-2.527C18.915,30.211,18.888,29.96,18.888,29.96z
				 M15.161,27.41c-1.029,0-1.862-1.01-1.862-2.255c0-1.246,0.833-2.256,1.862-2.256c1.028,0,1.863,1.01,1.863,2.256
				C17.024,26.4,16.189,27.41,15.161,27.41z"/>
		</g>
	</g>
	<g>
		<g>
			<path fill="#1ABC9B" d="M33.259,12.788l-1.504,1.88c1.482,1.924,1.929,5.104,1.929,5.104h-2.88
				c-0.118-0.492-0.532-1.33-1.956-1.471l-6.933,8.665c0.791-0.082,1.742-0.079,2.878-0.079c3.517,0,5.284-0.032,5.905,2.517
				c-1.432,0-7.884,0-10.733,0L19.52,29.96h11.179c0,0-0.163,1.603-2.288,1.603s-3.617,0-3.617,0s-1.492,0-3.617,0
				c-1.285,0-1.851-0.586-2.099-1.049l-2.021,2.527c1.341,0.168,2.72,0.09,3.858,0.09c3.498,0,3.879,0,3.879,0s0.381,0,3.879,0
				c3.497,0,9.25,0.752,9.25-7.224c0-2.942-1.994-2.877-3.203-8.564C34.266,15.477,33.896,13.892,33.259,12.788z M36.288,25.155
				c0,1.245-0.834,2.255-1.863,2.255c-1.028,0-1.863-1.01-1.863-2.255c0-1.246,0.835-2.256,1.863-2.256
				C35.454,22.899,36.288,23.909,36.288,25.155z"/>
			<path fill="#1ABC9B" d="M37.922,16.885c-0.193,0-0.98-0.197-0.98,1.111c0,1.307-0.653,0.719-0.653,1.373
				c0,0.654,0.425,1.145,0.85,1.145S36.975,19.5,38.674,19.5c0.72,0,1.831,0.327,1.831-0.752
				C40.505,17.44,38.576,16.885,37.922,16.885z"/>
			<path fill="#1ABC9B" d="M36.713,32.444c-0.458,0.72-1.962,1.145-2.615,1.177c-0.653,0.033-0.49,1.046,1.405,1.046
				c0.785,0,1.962-0.359,1.962-1.471S37.17,31.726,36.713,32.444z"/>
		</g>
	</g>
</g>
</svg>
