<?xml version="1.0" encoding="utf-8"?>
<!-- Generator: Adobe Illustrator 16.0.0, SVG Export Plug-In . SVG Version: 6.00 Build 0)  -->
<!DOCTYPE svg PUBLIC "-//W3C//DTD SVG 1.1//EN" "http://www.w3.org/Graphics/SVG/1.1/DTD/svg11.dtd">
<svg version="1.1" id="Layer_1" xmlns="http://www.w3.org/2000/svg" xmlns:xlink="http://www.w3.org/1999/xlink" x="0px" y="0px"
	 width="50px" height="50px" viewBox="0 0 50 50" enable-background="new 0 0 50 50" xml:space="preserve">
<path fill="#2C3E50" d="M34.746,18.52H15.255c-0.83,0-1.51,0.679-1.51,1.51v1.3c0,0.83,0.68,1.51,1.51,1.51h19.491
	c0.83,0,1.51-0.68,1.51-1.51v-1.301C36.256,19.198,35.576,18.52,34.746,18.52z"/>
<path fill="#2C3E50" d="M34.746,27.159H15.255c-0.83,0-1.51,0.68-1.51,1.51v1.301c0,0.83,0.68,1.51,1.51,1.51h19.491
	c0.83,0,1.51-0.68,1.51-1.51v-1.301C36.256,27.837,35.576,27.159,34.746,27.159z"/>
</svg>
