<?xml version="1.0" encoding="utf-8"?>
<!-- Generator: Adobe Illustrator 16.0.0, SVG Export Plug-In . SVG Version: 6.00 Build 0)  -->
<!DOCTYPE svg PUBLIC "-//W3C//DTD SVG 1.1//EN" "http://www.w3.org/Graphics/SVG/1.1/DTD/svg11.dtd">
<svg version="1.1" id="Layer_1" xmlns="http://www.w3.org/2000/svg" xmlns:xlink="http://www.w3.org/1999/xlink" x="0px" y="0px"
	 width="50px" height="50px" viewBox="0 0 50 50" enable-background="new 0 0 50 50" xml:space="preserve">
<g>
	<path fill="none" d="M25,12.305c-7.011,0-12.694,5.684-12.694,12.695c0,7.012,5.684,12.695,12.694,12.695
		c7.012,0,12.695-5.684,12.695-12.695C37.695,17.989,32.012,12.305,25,12.305z"/>
	<path fill="#95A5A5" d="M25,9.375C16.37,9.375,9.376,16.37,9.376,25S16.37,40.625,25,40.625S40.625,33.63,40.625,25
		S33.63,9.375,25,9.375z M25,37.695c-7.011,0-12.694-5.684-12.694-12.695c0-7.011,5.684-12.695,12.694-12.695
		c7.012,0,12.695,5.684,12.695,12.695C37.695,32.012,32.012,37.695,25,37.695z"/>
	<path fill="#E74C3C" d="M23.619,26.382c-0.354-0.354-0.571-0.842-0.571-1.382c0-1.079,0.873-1.953,1.952-1.953
		c0.54,0,1.028,0.218,1.382,0.571l1.548-1.548l-8.788-4.883h-1.953v1.953l4.883,8.789L23.619,26.382z"/>
	<path fill="#F9FAFC" d="M26.382,23.618c0.354,0.354,0.571,0.842,0.571,1.382c0,1.079-0.873,1.953-1.953,1.953
		c-0.54,0-1.027-0.218-1.381-0.571l-1.548,1.548l8.788,4.883h1.953v-1.953L27.93,22.07L26.382,23.618z"/>
</g>
<path fill="#95A5A5" d="M25,26.953c-0.54,0-1.027-0.218-1.381-0.571c-0.354-0.354-0.571-0.842-0.571-1.382
	c0-1.079,0.873-1.953,1.952-1.953c0.54,0,1.028,0.218,1.382,0.571S26.953,24.46,26.953,25C26.953,26.079,26.08,26.953,25,26.953z"/>
</svg>
