<?xml version="1.0" encoding="utf-8"?>
<!-- Generator: Adobe Illustrator 16.0.0, SVG Export Plug-In . SVG Version: 6.00 Build 0)  -->
<!DOCTYPE svg PUBLIC "-//W3C//DTD SVG 1.1//EN" "http://www.w3.org/Graphics/SVG/1.1/DTD/svg11.dtd">
<svg version="1.1" id="Layer_1" xmlns="http://www.w3.org/2000/svg" xmlns:xlink="http://www.w3.org/1999/xlink" x="0px" y="0px"
	 width="50px" height="50px" viewBox="0 0 50 50" enable-background="new 0 0 50 50" xml:space="preserve">
<g>
	<circle fill="#FFFFFF" cx="25" cy="25" r="25"/>
	<path fill="#E74C3B" d="M21.337,39.95c0,3.664-2.263,6.561-8.679,6.795c-3.757-2.137-6.908-5.221-9.125-8.93
		c1.156-2.856,4.771-5.031,8.901-4.986c1.174,0.014,2.265,0.201,3.259,0.524c2.73,1.896,4.932,3.083,5.484,5.245
		C21.282,39.036,21.337,39.486,21.337,39.95z M25,0C17.777,0,11.271,3.066,6.706,7.963C8.51,6.966,10.639,6.37,12.903,6.37
		c3.275,0,12.523,0,12.523,0l-2.8,2.936h-3.287c2.319,1.328,3.552,4.067,3.552,7.082c0,2.769-1.535,4.999-3.701,6.692
		c-2.114,1.649-2.514,2.341-2.514,3.747c0,1.196,2.525,2.982,3.687,3.854c4.044,3.033,4.862,4.941,4.862,8.734
		c0,3.843-3.365,7.672-9.075,8.972C18.902,49.428,21.885,50,25,50c13.807,0,25-11.192,25-25C50,11.192,38.807,0,25,0z M37.5,18.75
		V25h-3.125v-6.25h-6.25v-3.125h6.25v-6.25H37.5v6.25h6.25v3.125H37.5z M17.859,16.575c0.583,4.433-1.359,7.286-4.731,7.184
		c-3.375-0.102-6.585-3.196-7.166-7.627c-0.582-4.433,1.679-7.825,5.055-7.726C14.391,8.508,17.278,12.143,17.859,16.575z
		 M10.787,31.352c-3.646,0-6.746,1.258-8.929,3.117C0.661,31.549,0,28.351,0,25c0-2.773,0.452-5.438,1.285-7.93
		c0.36,4.857,3.778,8.603,9.422,8.603c0.417,0,0.818-0.021,1.214-0.049c-0.389,0.743-0.665,1.571-0.665,2.44
		c0,1.465,0.804,2.298,1.8,3.267C12.304,31.331,11.579,31.352,10.787,31.352z"/>
</g>
</svg>
