<?xml version="1.0" encoding="utf-8"?>
<!-- Generator: Adobe Illustrator 16.0.0, SVG Export Plug-In . SVG Version: 6.00 Build 0)  -->
<!DOCTYPE svg PUBLIC "-//W3C//DTD SVG 1.1//EN" "http://www.w3.org/Graphics/SVG/1.1/DTD/svg11.dtd">
<svg version="1.1" id="Layer_1" xmlns="http://www.w3.org/2000/svg" xmlns:xlink="http://www.w3.org/1999/xlink" x="0px" y="0px"
	 width="50px" height="50px" viewBox="0 0 50 50" enable-background="new 0 0 50 50" xml:space="preserve">
<g>
	<g>
		<path fill="#FFFFFF" d="M16.618,26.779c-1.542,0-2.791,1.249-2.791,2.791s1.249,2.791,2.791,2.791s2.791-1.249,2.791-2.791
			S18.16,26.779,16.618,26.779z M16.618,31.178c-0.888,0-1.607-0.719-1.607-1.607c0-0.888,0.719-1.606,1.607-1.606
			s1.607,0.719,1.607,1.606C18.226,30.459,17.506,31.178,16.618,31.178z"/>
		<path fill="#FFFFFF" d="M35.234,26.779c-1.542,0-2.791,1.249-2.791,2.791s1.249,2.791,2.791,2.791s2.791-1.249,2.791-2.791
			S36.776,26.779,35.234,26.779z M35.234,31.178c-0.888,0-1.606-0.719-1.606-1.607c0-0.888,0.719-1.606,1.606-1.606
			s1.607,0.719,1.607,1.606C36.842,30.459,36.122,31.178,35.234,31.178z"/>
		<path fill="#FFFFFF" d="M34.229,21.122c-5.403-5.15-8.291-5.118-9.433-5.118c0,0-4.187-0.033-5.963-0.033
			s-5.583,4.685-5.583,4.685s-1.228,0-1.989,0c-0.761,0-1.522,0.254-1.522,2.03c0,1.777-1.142,2.031-1.142,3.088s0-1.396,0,0.973
			c0,2.368,2.369,1.903,4.145,1.903c0.022,0,0.047,0.001,0.071,0.001c0.414-1.721,1.958-2.999,3.805-2.999
			c2.011,0,3.664,1.514,3.89,3.463c1.327,0,6.176,0,10.837,0c0.226-1.949,1.879-3.463,3.89-3.463s3.664,1.514,3.89,3.463
			c0.888,0,1.528,0,1.788,0c1.776,0,2.157-1.479,2.157-3.637C43.069,20.869,38.078,21.714,34.229,21.122z M22.301,21.455
			c0,0-5.287,0-6.048,0s2.072-4.352,3.511-4.352c1.438,0,2.62-0.054,2.62,0.241L22.301,21.455z M30.846,21.455
			c-0.754,0.011-6.218,0-7.487,0c0,0,0.082-3.901,0.082-4.11s0.955-0.234,1.134-0.218c0.889,0.08,1.765,0.348,2.584,0.703
			c1.704,0.74,3.155,1.858,3.936,2.448C32.326,21.207,31.723,21.442,30.846,21.455z"/>
	</g>
</g>
</svg>
