<?xml version="1.0" encoding="utf-8"?>
<!-- Generator: Adobe Illustrator 16.0.0, SVG Export Plug-In . SVG Version: 6.00 Build 0)  -->
<!DOCTYPE svg PUBLIC "-//W3C//DTD SVG 1.1//EN" "http://www.w3.org/Graphics/SVG/1.1/DTD/svg11.dtd">
<svg version="1.1" id="Layer_1" xmlns="http://www.w3.org/2000/svg" xmlns:xlink="http://www.w3.org/1999/xlink" x="0px" y="0px"
	 width="50px" height="50px" viewBox="0 0 50 50" enable-background="new 0 0 50 50" xml:space="preserve">
<g>
	<path fill="#16A085" d="M35.668,12.511H14.331c-2.079,0-3.77,1.692-3.77,3.771v17.435c0,2.08,1.69,3.773,3.77,3.773h21.337
		c2.079,0,3.771-1.693,3.771-3.773V16.282C39.438,14.203,37.747,12.511,35.668,12.511z M37.93,33.717
		c0,1.248-1.015,2.264-2.262,2.264H14.331c-1.247,0-2.262-1.016-2.262-2.264V16.282c0-1.248,1.015-2.263,2.262-2.263h21.337
		c1.247,0,2.262,1.015,2.262,2.263V33.717z"/>
	<path fill="#16A085" d="M34.737,15.357H15.263c-0.83,0-1.508,0.679-1.508,1.509v16.269c0,0.828,0.678,1.508,1.508,1.508h19.475
		c0.829,0,1.508-0.68,1.508-1.508V16.866C36.245,16.036,35.566,15.357,34.737,15.357z M30.435,22.669
		c0.017-0.039,0.039-0.072,0.068-0.101c0.028-0.029,0.063-0.051,0.102-0.069c0.039-0.017,0.081-0.026,0.125-0.026
		c0.042,0,0.083,0.009,0.121,0.026c0.038,0.018,0.072,0.04,0.101,0.069c0.028,0.029,0.052,0.062,0.069,0.101
		c0.017,0.039,0.025,0.079,0.025,0.121c0,0.044-0.009,0.086-0.025,0.125c-0.018,0.039-0.041,0.074-0.069,0.104
		s-0.063,0.054-0.101,0.071c-0.038,0.017-0.079,0.025-0.121,0.025c-0.044,0-0.086-0.009-0.125-0.025
		c-0.039-0.018-0.073-0.041-0.102-0.071c-0.029-0.03-0.052-0.065-0.068-0.104c-0.018-0.039-0.026-0.081-0.026-0.125
		C30.408,22.749,30.417,22.708,30.435,22.669z M27.197,22.669c0.018-0.039,0.04-0.072,0.069-0.101
		c0.028-0.029,0.063-0.051,0.102-0.069c0.039-0.017,0.081-0.026,0.125-0.026c0.042,0,0.083,0.009,0.121,0.026
		c0.038,0.018,0.072,0.04,0.101,0.069c0.029,0.029,0.051,0.062,0.069,0.101c0.017,0.039,0.025,0.079,0.025,0.121
		c0,0.044-0.009,0.086-0.025,0.125c-0.019,0.039-0.04,0.074-0.069,0.104c-0.028,0.03-0.063,0.054-0.101,0.071
		c-0.038,0.017-0.079,0.025-0.121,0.025c-0.044,0-0.086-0.009-0.125-0.025c-0.039-0.018-0.073-0.041-0.102-0.071
		c-0.029-0.03-0.052-0.065-0.069-0.104c-0.017-0.039-0.025-0.081-0.025-0.125C27.172,22.749,27.181,22.708,27.197,22.669z
		 M18.161,24.372h-0.502c0-0.068-0.017-0.127-0.048-0.175c-0.032-0.049-0.073-0.088-0.124-0.118
		c-0.051-0.029-0.107-0.052-0.169-0.065c-0.062-0.015-0.122-0.021-0.182-0.021c-0.065,0-0.125,0.008-0.18,0.022
		c-0.056,0.015-0.103,0.036-0.142,0.063c-0.039,0.028-0.069,0.062-0.092,0.103c-0.021,0.04-0.033,0.084-0.033,0.133
		c0,0.085,0.025,0.152,0.077,0.202s0.138,0.097,0.259,0.139l0.488,0.172c0.209,0.07,0.361,0.166,0.458,0.287
		s0.145,0.266,0.145,0.434c0,0.111-0.022,0.215-0.067,0.309s-0.108,0.176-0.19,0.24c-0.083,0.068-0.183,0.119-0.298,0.156
		c-0.117,0.037-0.246,0.055-0.388,0.055c-0.197,0-0.359-0.033-0.483-0.096c-0.124-0.064-0.22-0.148-0.287-0.252h-0.254v-0.422h0.507
		c0,0.07,0.015,0.131,0.046,0.18c0.03,0.049,0.07,0.09,0.119,0.121c0.05,0.031,0.107,0.053,0.17,0.068s0.127,0.023,0.192,0.023
		c0.063,0,0.125-0.01,0.184-0.023c0.059-0.016,0.11-0.039,0.155-0.07c0.045-0.029,0.081-0.064,0.107-0.109
		c0.025-0.041,0.039-0.09,0.039-0.145c0-0.08-0.027-0.15-0.08-0.208c-0.053-0.057-0.144-0.108-0.271-0.154l-0.485-0.182
		c-0.197-0.07-0.345-0.159-0.44-0.269c-0.095-0.108-0.144-0.244-0.144-0.408c0-0.107,0.02-0.207,0.061-0.299
		c0.04-0.092,0.098-0.17,0.174-0.236s0.169-0.118,0.278-0.156c0.109-0.037,0.234-0.056,0.375-0.056c0.182,0,0.333,0.024,0.456,0.076
		c0.123,0.05,0.233,0.137,0.331,0.259h0.237V24.372z M21.025,25.473c-0.063,0.167-0.147,0.312-0.259,0.433
		c-0.11,0.119-0.241,0.213-0.394,0.279c-0.151,0.068-0.318,0.102-0.5,0.102c-0.129,0-0.244-0.014-0.345-0.041
		s-0.196-0.063-0.287-0.104v0.82h0.396v0.422h-1.206v-0.422h0.348v-2.851h-0.353v-0.421h0.809v0.21
		c0.108-0.083,0.227-0.149,0.354-0.198s0.259-0.074,0.395-0.074c0.167,0,0.32,0.032,0.459,0.094
		c0.139,0.063,0.258,0.149,0.358,0.263c0.101,0.112,0.179,0.248,0.234,0.406c0.056,0.157,0.083,0.331,0.083,0.522
		C21.118,25.119,21.088,25.305,21.025,25.473z M21.937,25.217c0.011,0.059,0.025,0.116,0.045,0.17
		c0.061,0.164,0.158,0.287,0.291,0.369s0.283,0.123,0.451,0.123c0.133,0,0.262-0.018,0.387-0.055s0.256-0.094,0.394-0.172
		l0.184,0.311c-0.166,0.115-0.334,0.199-0.503,0.256c-0.168,0.055-0.343,0.082-0.523,0.082c-0.172,0-0.331-0.027-0.478-0.086
		c-0.146-0.057-0.271-0.141-0.378-0.254c-0.105-0.113-0.188-0.254-0.247-0.422c-0.06-0.168-0.089-0.365-0.089-0.588
		c0-0.182,0.025-0.353,0.076-0.514c0.05-0.161,0.125-0.302,0.226-0.422s0.226-0.215,0.374-0.285c0.148-0.071,0.322-0.105,0.52-0.105
		c0.191,0,0.352,0.028,0.48,0.087c0.127,0.058,0.232,0.135,0.313,0.23c0.082,0.096,0.143,0.204,0.184,0.327
		c0.043,0.122,0.072,0.247,0.088,0.375c0.008,0.063,0.014,0.125,0.016,0.189c0.003,0.063,0.004,0.125,0.004,0.186H21.92
		C21.92,25.091,21.925,25.157,21.937,25.217z M26.563,24.368h-0.46c-0.069-0.123-0.156-0.213-0.262-0.271
		c-0.104-0.057-0.228-0.086-0.366-0.086c-0.106,0-0.206,0.022-0.299,0.066c-0.094,0.044-0.175,0.107-0.244,0.188
		c-0.07,0.082-0.124,0.182-0.164,0.299c-0.041,0.116-0.061,0.246-0.061,0.391c0,0.142,0.02,0.271,0.061,0.385
		c0.04,0.115,0.096,0.212,0.165,0.292c0.07,0.082,0.151,0.143,0.244,0.188c0.092,0.043,0.191,0.064,0.298,0.064
		c0.157,0,0.293-0.039,0.409-0.113c0.116-0.076,0.209-0.189,0.277-0.335l0.377,0.187c-0.049,0.104-0.109,0.197-0.182,0.281
		c-0.071,0.084-0.152,0.154-0.244,0.213c-0.09,0.059-0.189,0.105-0.299,0.137c-0.108,0.031-0.223,0.047-0.344,0.047
		c-0.177,0-0.34-0.033-0.489-0.098c-0.15-0.066-0.278-0.16-0.387-0.279c-0.109-0.119-0.194-0.262-0.254-0.426
		c-0.062-0.165-0.092-0.346-0.092-0.542s0.032-0.376,0.096-0.542c0.064-0.165,0.151-0.307,0.263-0.426
		c0.111-0.118,0.241-0.211,0.39-0.277c0.148-0.067,0.309-0.102,0.479-0.102c0.16,0,0.312,0.028,0.454,0.084
		c0.144,0.056,0.269,0.14,0.377,0.253h0.257V24.368z M28.101,26.23h-1.206v-0.422h0.363v-1.697H26.89v-0.421h0.829v2.118h0.382
		V26.23z M29.848,23.691v0.369h-0.59v1.749h0.397v0.422H28.42v-0.422h0.383V24.06h-0.42v-0.369h0.42v-0.397
		c0.003-0.147,0.024-0.275,0.063-0.386c0.04-0.109,0.095-0.201,0.167-0.274c0.071-0.073,0.158-0.128,0.259-0.164
		c0.103-0.036,0.215-0.054,0.339-0.054c0.087,0,0.165,0.004,0.233,0.012c0.068,0.009,0.13,0.02,0.184,0.034s0.102,0.029,0.144,0.045
		c0.042,0.017,0.079,0.033,0.111,0.049l-0.14,0.327c-0.053-0.027-0.121-0.051-0.204-0.071c-0.085-0.02-0.173-0.029-0.264-0.029
		c-0.136,0-0.243,0.042-0.32,0.126c-0.078,0.084-0.117,0.209-0.117,0.371v0.413H29.848z M31.338,26.23h-1.207v-0.422h0.363v-1.697
		h-0.368v-0.421h0.829v2.118h0.383V26.23z M33.951,24.368H33.49c-0.068-0.123-0.155-0.213-0.261-0.271
		c-0.106-0.057-0.228-0.086-0.367-0.086c-0.106,0-0.206,0.022-0.299,0.066s-0.174,0.107-0.244,0.188
		c-0.069,0.082-0.124,0.182-0.164,0.299c-0.04,0.116-0.061,0.246-0.061,0.391c0,0.142,0.021,0.271,0.061,0.385
		c0.04,0.115,0.096,0.212,0.166,0.292c0.069,0.082,0.151,0.143,0.243,0.188c0.093,0.043,0.191,0.064,0.298,0.064
		c0.157,0,0.294-0.039,0.41-0.113c0.115-0.076,0.208-0.189,0.276-0.335l0.378,0.187c-0.049,0.104-0.109,0.197-0.182,0.281
		s-0.153,0.154-0.244,0.213s-0.19,0.105-0.298,0.137c-0.109,0.031-0.225,0.047-0.346,0.047c-0.177,0-0.339-0.033-0.489-0.098
		c-0.149-0.066-0.278-0.16-0.387-0.279c-0.109-0.119-0.193-0.262-0.254-0.426c-0.061-0.165-0.091-0.346-0.091-0.542
		s0.032-0.376,0.096-0.542c0.063-0.165,0.151-0.307,0.262-0.426c0.112-0.118,0.242-0.211,0.391-0.277
		c0.148-0.067,0.308-0.102,0.478-0.102c0.16,0,0.312,0.028,0.455,0.084s0.269,0.14,0.376,0.253h0.258V24.368z"/>
	<path fill="#16A085" d="M20.416,24.266c-0.071-0.076-0.153-0.135-0.249-0.175c-0.095-0.04-0.195-0.061-0.304-0.061
		c-0.118,0-0.23,0.024-0.339,0.071c-0.109,0.048-0.203,0.113-0.283,0.196v1.375c0.053,0.055,0.131,0.105,0.23,0.15
		c0.102,0.043,0.227,0.064,0.377,0.064c0.104,0,0.205-0.02,0.302-0.061s0.181-0.102,0.255-0.182
		c0.074-0.082,0.133-0.181,0.176-0.301c0.045-0.119,0.066-0.258,0.066-0.414c0-0.144-0.021-0.271-0.063-0.383
		C20.544,24.437,20.487,24.343,20.416,24.266z"/>
	<path fill="#16A085" d="M23.106,24.193c-0.049-0.059-0.111-0.104-0.188-0.138c-0.078-0.032-0.172-0.049-0.285-0.049
		c-0.106,0-0.199,0.016-0.278,0.046s-0.147,0.073-0.202,0.13c-0.056,0.057-0.101,0.126-0.134,0.207
		c-0.033,0.082-0.058,0.174-0.075,0.274h1.316c-0.006-0.095-0.021-0.182-0.045-0.263C23.192,24.322,23.155,24.251,23.106,24.193z"/>
</g>
</svg>
