<?xml version="1.0" encoding="utf-8"?>
<!-- Generator: Adobe Illustrator 16.0.0, SVG Export Plug-In . SVG Version: 6.00 Build 0)  -->
<!DOCTYPE svg PUBLIC "-//W3C//DTD SVG 1.1//EN" "http://www.w3.org/Graphics/SVG/1.1/DTD/svg11.dtd">
<svg version="1.1" id="Layer_1" xmlns="http://www.w3.org/2000/svg" xmlns:xlink="http://www.w3.org/1999/xlink" x="0px" y="0px"
	 width="50px" height="50px" viewBox="0 0 50 50" enable-background="new 0 0 50 50" xml:space="preserve">
<g>
	<path fill="#FFFFFF" d="M32.893,11.929H17.107c-1.882,0-3.414,1.532-3.414,3.414v19.315c0,1.883,1.532,3.414,3.414,3.414h5.414
		h4.949h5.422c1.882,0,3.414-1.531,3.414-3.414V15.343C36.307,13.461,34.774,11.929,32.893,11.929z M34.94,34.658
		c0,1.131-0.919,2.049-2.048,2.049H17.107c-1.13,0-2.048-0.918-2.048-2.049V15.343c0-1.129,0.918-2.048,2.048-2.048h15.785
		c1.129,0,2.048,0.918,2.048,2.048V34.658z"/>
	<path fill="#FFFFFF" d="M32.363,14.82H17.636c-0.751,0-1.365,0.614-1.365,1.365v17.631c0,0.75,0.614,1.365,1.365,1.365h14.728
		c0.752,0,1.365-0.615,1.365-1.365V16.186C33.729,15.435,33.115,14.82,32.363,14.82z M20.423,31.104
		c-0.843,0-1.526-0.684-1.526-1.525s0.684-1.525,1.526-1.525c0.842,0,1.525,0.684,1.525,1.525S21.265,31.104,20.423,31.104z
		 M20.423,26.525c-0.843,0-1.526-0.682-1.526-1.525c0-0.843,0.684-1.525,1.526-1.525c0.842,0,1.525,0.683,1.525,1.525
		C21.948,25.844,21.265,26.525,20.423,26.525z M20.423,21.949c-0.843,0-1.526-0.683-1.526-1.526s0.684-1.526,1.526-1.526
		c0.842,0,1.525,0.683,1.525,1.526S21.265,21.949,20.423,21.949z M31.103,29.607c0,0.404-0.329,0.732-0.732,0.732h-6.163
		c-0.403,0-0.733-0.328-0.733-0.732v-0.059c0-0.404,0.33-0.734,0.733-0.734h6.163c0.403,0,0.732,0.33,0.732,0.734V29.607z
		 M31.103,25.031c0,0.403-0.329,0.733-0.732,0.733h-6.163c-0.403,0-0.733-0.33-0.733-0.733V24.97c0-0.403,0.33-0.732,0.733-0.732
		h6.163c0.403,0,0.732,0.329,0.732,0.732V25.031z M31.103,20.453c0,0.403-0.329,0.733-0.732,0.733h-6.163
		c-0.403,0-0.733-0.33-0.733-0.733v-0.061c0-0.403,0.33-0.732,0.733-0.732h6.163c0.403,0,0.732,0.33,0.732,0.732V20.453z"/>
</g>
</svg>
