<?xml version="1.0" encoding="utf-8"?>
<!-- Generator: Adobe Illustrator 16.0.0, SVG Export Plug-In . SVG Version: 6.00 Build 0)  -->
<!DOCTYPE svg PUBLIC "-//W3C//DTD SVG 1.1//EN" "http://www.w3.org/Graphics/SVG/1.1/DTD/svg11.dtd">
<svg version="1.1" id="Layer_1" xmlns="http://www.w3.org/2000/svg" xmlns:xlink="http://www.w3.org/1999/xlink" x="0px" y="0px"
	 width="50px" height="50px" viewBox="0 0 50 50" enable-background="new 0 0 50 50" xml:space="preserve">
<g>
	<path fill="#2C3E50" d="M35.678,12.5H14.323c-2.081,0-3.774,1.693-3.774,3.773v17.452c0,2.082,1.693,3.774,3.774,3.774h21.354
		c2.081,0,3.773-1.692,3.773-3.774V16.273C39.451,14.193,37.759,12.5,35.678,12.5z M37.941,33.725c0,1.248-1.017,2.265-2.265,2.265
		H14.323c-1.249,0-2.265-1.017-2.265-2.265V16.273c0-1.248,1.016-2.264,2.265-2.264h21.354c1.248,0,2.265,1.016,2.265,2.264V33.725z
		"/>
	<path fill="#2C3E50" d="M32.916,29.43c-0.053-0.063-0.12-0.111-0.202-0.146c-0.083-0.035-0.185-0.054-0.306-0.054
		c-0.113,0-0.213,0.017-0.299,0.049c-0.084,0.033-0.156,0.078-0.217,0.14c-0.06,0.062-0.106,0.136-0.144,0.224
		s-0.063,0.186-0.08,0.295h1.411c-0.007-0.103-0.021-0.195-0.048-0.281S32.969,29.494,32.916,29.43z"/>
	<path fill="#2C3E50" d="M23.015,29.494c-0.076-0.086-0.167-0.152-0.272-0.195c-0.105-0.045-0.219-0.066-0.339-0.066
		c-0.116,0-0.225,0.021-0.327,0.066c-0.103,0.043-0.193,0.109-0.271,0.195c-0.078,0.086-0.139,0.191-0.184,0.32
		c-0.045,0.127-0.067,0.272-0.067,0.438c0,0.156,0.022,0.297,0.067,0.422c0.045,0.127,0.105,0.234,0.184,0.322
		c0.078,0.09,0.169,0.157,0.271,0.205c0.103,0.049,0.211,0.071,0.327,0.071c0.12,0,0.233-0.022,0.338-0.069s0.194-0.115,0.272-0.203
		c0.076-0.09,0.137-0.196,0.181-0.321c0.044-0.128,0.065-0.269,0.065-0.427c0-0.166-0.021-0.313-0.065-0.438
		C23.15,29.686,23.09,29.58,23.015,29.494z"/>
	<path fill="#2C3E50" d="M27.396,29.258c-0.117,0-0.226,0.021-0.326,0.063c-0.103,0.046-0.19,0.105-0.268,0.189
		c-0.076,0.082-0.137,0.184-0.181,0.301c-0.044,0.121-0.065,0.258-0.065,0.41c0,0.17,0.021,0.316,0.063,0.445
		c0.042,0.127,0.101,0.234,0.176,0.322c0.075,0.086,0.166,0.152,0.271,0.195c0.105,0.045,0.222,0.065,0.346,0.065
		c0.146,0,0.268-0.021,0.365-0.063s0.188-0.107,0.271-0.193v-1.525c-0.087-0.072-0.188-0.127-0.302-0.16
		C27.632,29.273,27.516,29.258,27.396,29.258z"/>
	<path fill="#2C3E50" d="M34.746,15.349H15.255c-0.83,0-1.51,0.679-1.51,1.51v16.282c0,0.83,0.68,1.51,1.51,1.51h19.491
		c0.83,0,1.51-0.68,1.51-1.51V16.858C36.256,16.027,35.576,15.349,34.746,15.349z M23.226,24.789h0.825V19.7h-0.825v-1.44h3.413
		v1.44h-0.842v5.089h0.842v1.441h-3.413V24.789z M16.17,24.586l3.875-4.765h-2.15v1.263H16.18V18.26h6.053v1.651l-3.971,4.759h2.25
		v-1.236h1.709v2.796H16.17V24.586z M18.817,29.617h-0.494c-0.073-0.131-0.167-0.229-0.28-0.289s-0.244-0.092-0.393-0.092
		c-0.114,0-0.221,0.022-0.32,0.07c-0.101,0.047-0.188,0.114-0.262,0.202c-0.075,0.087-0.134,0.193-0.177,0.318
		s-0.064,0.266-0.064,0.42c0,0.151,0.021,0.289,0.064,0.412s0.103,0.229,0.178,0.313c0.075,0.086,0.162,0.154,0.261,0.199
		c0.1,0.047,0.206,0.07,0.32,0.07c0.168,0,0.314-0.041,0.439-0.121c0.124-0.082,0.223-0.201,0.297-0.359l0.404,0.199
		c-0.053,0.113-0.117,0.213-0.194,0.303c-0.077,0.09-0.165,0.166-0.262,0.229s-0.204,0.11-0.321,0.146
		c-0.116,0.033-0.239,0.051-0.369,0.051c-0.189,0-0.363-0.035-0.524-0.106c-0.16-0.069-0.299-0.17-0.415-0.297
		c-0.117-0.129-0.207-0.281-0.272-0.459c-0.064-0.177-0.097-0.369-0.097-0.58s0.033-0.404,0.102-0.582
		c0.068-0.176,0.163-0.328,0.282-0.455c0.119-0.127,0.259-0.228,0.418-0.299c0.159-0.072,0.33-0.106,0.513-0.106
		c0.172,0,0.334,0.028,0.487,0.09c0.153,0.059,0.288,0.149,0.403,0.27h0.276V29.617z M23.665,30.832
		c-0.066,0.18-0.159,0.332-0.278,0.459c-0.119,0.129-0.263,0.229-0.43,0.299c-0.168,0.072-0.353,0.107-0.554,0.107
		c-0.205,0-0.392-0.035-0.558-0.105s-0.309-0.17-0.429-0.297c-0.119-0.127-0.212-0.279-0.278-0.455
		c-0.066-0.178-0.101-0.373-0.103-0.586c0.002-0.217,0.036-0.412,0.104-0.59c0.067-0.176,0.162-0.328,0.282-0.455
		c0.121-0.127,0.266-0.225,0.432-0.293c0.167-0.068,0.35-0.104,0.55-0.104c0.201,0,0.386,0.035,0.554,0.104
		c0.167,0.068,0.311,0.164,0.43,0.289c0.119,0.125,0.212,0.277,0.278,0.455c0.066,0.176,0.101,0.373,0.101,0.588
		C23.766,30.461,23.731,30.654,23.665,30.832z M28.936,31.615h-0.889v-0.225c-0.087,0.09-0.188,0.159-0.305,0.211
		c-0.115,0.049-0.247,0.073-0.395,0.073c-0.185,0-0.355-0.032-0.515-0.096s-0.296-0.158-0.413-0.281
		c-0.115-0.125-0.207-0.274-0.273-0.455c-0.064-0.18-0.098-0.385-0.098-0.616c0-0.211,0.031-0.4,0.094-0.574
		c0.063-0.172,0.153-0.32,0.27-0.441c0.115-0.123,0.255-0.217,0.418-0.283c0.163-0.068,0.345-0.102,0.544-0.102
		c0.132,0,0.252,0.014,0.36,0.043c0.107,0.029,0.213,0.078,0.313,0.15v-1.043h-0.37v-0.453h0.859v3.641h0.399V31.615L28.936,31.615z
		 M31.66,30.527c0.012,0.063,0.027,0.125,0.049,0.184c0.064,0.176,0.169,0.307,0.313,0.395c0.143,0.09,0.305,0.134,0.484,0.134
		c0.143,0,0.28-0.021,0.414-0.06c0.135-0.039,0.273-0.102,0.422-0.186l0.197,0.334c-0.18,0.123-0.357,0.215-0.539,0.273
		c-0.182,0.061-0.368,0.09-0.563,0.09c-0.185,0-0.354-0.031-0.513-0.092c-0.155-0.063-0.291-0.152-0.403-0.273
		c-0.113-0.121-0.203-0.271-0.267-0.453c-0.063-0.18-0.096-0.391-0.096-0.631c0-0.193,0.026-0.377,0.081-0.551
		c0.055-0.172,0.136-0.322,0.242-0.451c0.107-0.129,0.242-0.23,0.401-0.307c0.159-0.078,0.345-0.113,0.558-0.113
		c0.205,0,0.377,0.031,0.515,0.094s0.25,0.145,0.336,0.246c0.087,0.104,0.151,0.221,0.196,0.352
		c0.046,0.131,0.076,0.266,0.095,0.402c0.009,0.066,0.015,0.135,0.019,0.203c0.002,0.068,0.002,0.135,0.002,0.199h-1.961
		C31.645,30.393,31.648,30.465,31.66,30.527z M33.813,21.654c-0.109,0.324-0.28,0.605-0.513,0.844
		c-0.231,0.238-0.524,0.427-0.879,0.565c-0.354,0.139-0.772,0.208-1.256,0.208h-1.108v1.518h0.729v1.441h-3.302v-1.441h0.824v-5.083
		h-0.824V18.26h3.681c0.41,0,0.787,0.063,1.13,0.191c0.344,0.129,0.641,0.301,0.889,0.519c0.25,0.217,0.443,0.468,0.584,0.752
		c0.141,0.284,0.211,0.58,0.211,0.889C33.979,20.981,33.924,21.33,33.813,21.654z"/>
	<path fill="#2C3E50" d="M31.749,19.995c-0.222-0.193-0.545-0.289-0.974-0.289h-0.719v2.14h0.719c0.399,0,0.718-0.084,0.953-0.252
		c0.233-0.168,0.352-0.435,0.352-0.8C32.08,20.454,31.971,20.188,31.749,19.995z"/>
</g>
</svg>
