<?xml version="1.0" encoding="utf-8"?>
<!-- Generator: Adobe Illustrator 16.0.0, SVG Export Plug-In . SVG Version: 6.00 Build 0)  -->
<!DOCTYPE svg PUBLIC "-//W3C//DTD SVG 1.1//EN" "http://www.w3.org/Graphics/SVG/1.1/DTD/svg11.dtd">
<svg version="1.1" id="Layer_1" xmlns="http://www.w3.org/2000/svg" xmlns:xlink="http://www.w3.org/1999/xlink" x="0px" y="0px"
	 width="50px" height="50px" viewBox="0 0 50 50" enable-background="new 0 0 50 50" xml:space="preserve">
<g>
	<path fill="#3498DB" d="M25,17.059c-4.378,0-7.941,3.563-7.941,7.942c0,4.379,3.563,7.941,7.941,7.941
		c4.379,0,7.942-3.563,7.942-7.941C32.941,20.621,29.379,17.059,25,17.059z"/>
	<path fill="#2980B9" d="M25,15.271c-5.373,0-9.729,4.356-9.729,9.73c0,5.373,4.356,9.729,9.729,9.729
		c5.374,0,9.729-4.355,9.729-9.729C34.729,19.627,30.373,15.271,25,15.271z M25,32.942c-4.378,0-7.941-3.563-7.941-7.941
		c0-4.38,3.563-7.942,7.941-7.942c4.379,0,7.942,3.563,7.942,7.942C32.941,29.38,29.379,32.942,25,32.942z"/>
</g>
</svg>
