<?xml version="1.0" encoding="utf-8"?>
<!-- Generator: Adobe Illustrator 16.0.0, SVG Export Plug-In . SVG Version: 6.00 Build 0)  -->
<!DOCTYPE svg PUBLIC "-//W3C//DTD SVG 1.1//EN" "http://www.w3.org/Graphics/SVG/1.1/DTD/svg11.dtd">
<svg version="1.1" id="Layer_1" xmlns="http://www.w3.org/2000/svg" xmlns:xlink="http://www.w3.org/1999/xlink" x="0px" y="0px"
	 width="50px" height="50px" viewBox="0 0 50 50" enable-background="new 0 0 50 50" xml:space="preserve">
<g>
	<path fill="#F39C12" d="M35.832,12.472H14.496c-2.08,0-3.771,1.692-3.771,3.771v17.436c0,2.079,1.691,3.771,3.771,3.771h21.336
		c2.079,0,3.771-1.692,3.771-3.771V16.243C39.604,14.164,37.911,12.472,35.832,12.472z M38.095,33.679
		c0,1.247-1.015,2.263-2.263,2.263H14.496c-1.248,0-2.262-1.016-2.262-2.263V16.243c0-1.248,1.015-2.263,2.262-2.263h21.336
		c1.248,0,2.263,1.015,2.263,2.263V33.679z"/>
	<path fill="#F39C12" d="M34.901,15.318H15.427c-0.829,0-1.508,0.678-1.508,1.509v16.269c0,0.828,0.679,1.508,1.508,1.508h19.474
		c0.83,0,1.509-0.68,1.509-1.508V16.827C36.41,15.997,35.731,15.318,34.901,15.318z M23.116,18.896l2.394-1.409l0.83,0.012v7.124
		h0.916v1.568h-3.717v-1.568h0.911v-4.53l-1.334,0.796V18.896z M19.388,31.57h-0.829v-0.208c-0.082,0.083-0.176,0.148-0.284,0.195
		c-0.108,0.046-0.23,0.069-0.368,0.069c-0.172,0-0.332-0.029-0.479-0.089c-0.148-0.061-0.276-0.147-0.385-0.263
		s-0.194-0.257-0.255-0.424c-0.061-0.168-0.092-0.36-0.092-0.575c0-0.196,0.03-0.375,0.088-0.536s0.142-0.298,0.25-0.411
		c0.108-0.114,0.238-0.202,0.39-0.266c0.151-0.063,0.321-0.094,0.507-0.094c0.123,0,0.234,0.014,0.336,0.04
		c0.101,0.027,0.198,0.074,0.292,0.141v-0.974h-0.345v-0.421h0.802v3.393h0.373V31.57z M21.955,31.57h-0.738v-0.235
		c-0.097,0.091-0.203,0.164-0.32,0.221c-0.117,0.058-0.25,0.086-0.398,0.086c-0.125,0-0.238-0.02-0.342-0.059
		s-0.194-0.093-0.269-0.16c-0.075-0.068-0.133-0.147-0.175-0.237C19.671,31.097,19.65,31,19.65,30.899
		c0-0.108,0.016-0.204,0.048-0.287c0.032-0.084,0.074-0.156,0.127-0.217c0.053-0.062,0.115-0.113,0.186-0.155
		c0.071-0.041,0.146-0.074,0.224-0.1c0.077-0.026,0.156-0.044,0.237-0.055s0.158-0.016,0.232-0.016c0.117,0,0.216,0.004,0.296,0.011
		c0.08,0.008,0.153,0.018,0.218,0.031l0.003-0.209c0-0.09-0.014-0.168-0.04-0.233c-0.026-0.066-0.063-0.122-0.11-0.165
		c-0.047-0.043-0.104-0.075-0.17-0.097c-0.067-0.021-0.141-0.032-0.222-0.032c-0.078,0-0.151,0.006-0.222,0.016
		c-0.07,0.011-0.135,0.025-0.197,0.042c-0.061,0.018-0.118,0.037-0.169,0.06c-0.052,0.021-0.095,0.045-0.131,0.069l-0.15-0.316
		c0.061-0.039,0.126-0.075,0.199-0.108s0.147-0.063,0.227-0.086s0.161-0.043,0.243-0.057c0.082-0.014,0.164-0.021,0.244-0.021
		c0.147,0,0.279,0.018,0.397,0.053c0.118,0.035,0.218,0.089,0.299,0.162c0.083,0.074,0.145,0.168,0.189,0.281
		c0.044,0.113,0.066,0.25,0.066,0.408l-0.002,1.27h0.282V31.57z M24.745,29.452h-0.262l-1.131,2.852H23.7v0.422h-1.024v-0.422h0.309
		l0.27-0.699l-0.848-2.152H22.2V29.03h0.963v0.422h-0.302l0.596,1.621l0.623-1.621h-0.299V29.03h0.963V29.452z M25.424,31.642
		h-0.426l1.471-3.918h0.427L25.424,31.642z M30.757,29.452h-0.219l-0.696,2.157H29.42l-0.575-2.027l-0.574,2.027h-0.426
		l-0.692-2.157h-0.218V29.03h0.804v0.422H27.62l0.444,1.621l0.608-2.043h0.383l0.58,2.038l0.464-1.616h-0.146V29.03h0.804V29.452z
		 M33.834,31.57h-0.537l-1.039-1.135h-0.336v0.713h0.21v0.422h-1.086v-0.422h0.417v-2.972h-0.432v-0.421h0.896v0.421h-0.005v1.898
		h0.44l0.604-0.623h-0.152V29.03h0.964v0.422h-0.321l-0.772,0.797l0.844,0.899h0.307V31.57z"/>
	<path fill="#F39C12" d="M17.951,29.371c-0.108,0-0.209,0.021-0.304,0.061c-0.094,0.04-0.177,0.099-0.249,0.175
		c-0.071,0.078-0.127,0.172-0.168,0.282c-0.041,0.111-0.062,0.239-0.062,0.382c0,0.157,0.02,0.296,0.06,0.415
		c0.039,0.119,0.094,0.22,0.164,0.301c0.071,0.081,0.154,0.142,0.253,0.183c0.098,0.041,0.205,0.062,0.321,0.062
		c0.136,0,0.249-0.021,0.341-0.062c0.091-0.039,0.175-0.1,0.252-0.18v-1.422c-0.082-0.068-0.176-0.118-0.282-0.149
		C18.171,29.388,18.063,29.371,17.951,29.371z"/>
	<path fill="#F39C12" d="M20.448,30.44c-0.073,0.02-0.136,0.048-0.188,0.086c-0.053,0.037-0.095,0.084-0.124,0.14
		s-0.044,0.119-0.044,0.191c0,0.067,0.012,0.126,0.037,0.175c0.025,0.05,0.059,0.092,0.104,0.125
		c0.045,0.034,0.099,0.06,0.161,0.076c0.062,0.018,0.131,0.026,0.206,0.026c0.061,0,0.121-0.008,0.181-0.022
		c0.061-0.015,0.118-0.035,0.172-0.061c0.054-0.024,0.104-0.054,0.149-0.088c0.046-0.034,0.084-0.068,0.116-0.104l0.002-0.573H20.69
		C20.602,30.411,20.521,30.421,20.448,30.44z"/>
</g>
</svg>
