<?xml version="1.0" encoding="utf-8"?>
<!-- Generator: Adobe Illustrator 16.0.0, SVG Export Plug-In . SVG Version: 6.00 Build 0)  -->
<!DOCTYPE svg PUBLIC "-//W3C//DTD SVG 1.1//EN" "http://www.w3.org/Graphics/SVG/1.1/DTD/svg11.dtd">
<svg version="1.1" id="Layer_1" xmlns="http://www.w3.org/2000/svg" xmlns:xlink="http://www.w3.org/1999/xlink" x="0px" y="0px"
	 width="50px" height="50px" viewBox="0 0 50 50" enable-background="new 0 0 50 50" xml:space="preserve">
<path fill="#3398DB" d="M29.701,31.619c-0.069-0.085-0.159-0.149-0.27-0.196c-0.109-0.047-0.245-0.07-0.405-0.07
	c-0.152,0-0.285,0.021-0.397,0.064c-0.113,0.044-0.21,0.105-0.289,0.187c-0.079,0.079-0.143,0.179-0.19,0.296
	c-0.049,0.116-0.084,0.247-0.106,0.392h1.879c-0.009-0.136-0.03-0.261-0.064-0.375C29.824,31.802,29.771,31.702,29.701,31.619z"/>
<g>
	<g>
		<g>
			<g>
				<path fill="#2880B9" d="M35.251,8.903H14.749c-2.444,0-4.434,1.989-4.434,4.434v25.088c0,2.445,1.989,4.435,4.434,4.435h20.502
					c2.444,0,4.435-1.989,4.435-4.435V13.337C39.686,10.893,37.695,8.903,35.251,8.903z M37.912,38.426
					c0,1.468-1.194,2.66-2.661,2.66H14.749c-1.467,0-2.66-1.192-2.66-2.66V13.337c0-1.467,1.193-2.66,2.66-2.66h20.502
					c1.467,0,2.661,1.193,2.661,2.66V38.426z"/>
				<path fill="#2880B9" d="M24.979,24.199c0.202-0.137,0.356-0.324,0.464-0.565c0.108-0.24,0.177-0.526,0.208-0.856
					c0.03-0.331,0.046-0.69,0.046-1.078c0-0.38-0.016-0.735-0.046-1.064c-0.031-0.329-0.1-0.615-0.205-0.859
					c-0.105-0.244-0.259-0.435-0.461-0.573c-0.202-0.138-0.472-0.208-0.811-0.208c-0.342,0-0.614,0.07-0.818,0.208
					c-0.204,0.139-0.359,0.33-0.467,0.573c-0.108,0.245-0.178,0.531-0.211,0.859c-0.032,0.329-0.049,0.684-0.049,1.064
					c0,0.388,0.017,0.748,0.049,1.078c0.033,0.33,0.102,0.616,0.208,0.856c0.105,0.241,0.26,0.429,0.461,0.565
					c0.202,0.137,0.474,0.205,0.816,0.205C24.506,24.404,24.778,24.336,24.979,24.199z"/>
				<path fill="#2880B9" d="M34.564,12.659H15.435c-0.976,0-1.774,0.798-1.774,1.774v22.899c0,0.976,0.799,1.773,1.774,1.773h19.129
					c0.976,0,1.773-0.798,1.773-1.773V14.433C36.338,13.457,35.54,12.659,34.564,12.659z M28.522,22.32h1.869v-1.87h1.529v1.87
					h1.874v1.528h-1.874v1.874h-1.529v-1.874h-1.869V22.32z M16.063,18.748l2.41-1.419l0.836,0.012v7.173h0.922v1.58h-3.742v-1.58
					h0.917v-4.561l-1.344,0.801V18.748z M22.49,34.528h-1.694v-0.603h0.511V32.27c0-0.277-0.069-0.488-0.209-0.632
					s-0.342-0.215-0.606-0.215c-0.156,0-0.316,0.037-0.479,0.111c-0.163,0.075-0.303,0.17-0.42,0.284v2.107h0.501v0.603h-1.691
					v-0.603h0.511V32.27c0-0.277-0.07-0.488-0.212-0.632c-0.141-0.144-0.343-0.215-0.607-0.215c-0.152,0-0.304,0.036-0.459,0.108
					c-0.154,0.072-0.299,0.162-0.437,0.27v2.125h0.51v0.603h-1.693v-0.603h0.503v-2.423h-0.503V30.9h1.155v0.424h0.007
					c0.079-0.067,0.162-0.131,0.25-0.19c0.087-0.06,0.179-0.111,0.274-0.156c0.096-0.044,0.195-0.079,0.299-0.104
					s0.211-0.038,0.324-0.038c0.261,0,0.486,0.048,0.676,0.145c0.188,0.097,0.334,0.248,0.438,0.454
					c0.089-0.08,0.182-0.156,0.28-0.229s0.2-0.138,0.306-0.19c0.106-0.055,0.217-0.098,0.334-0.13
					c0.117-0.033,0.238-0.049,0.364-0.049c0.196,0,0.373,0.026,0.529,0.08s0.289,0.135,0.399,0.245
					c0.109,0.109,0.192,0.25,0.25,0.422c0.058,0.171,0.086,0.374,0.086,0.607v1.736h0.504V34.528z M21.543,24.896
					c-0.271-0.397-0.469-0.866-0.593-1.406c-0.125-0.541-0.188-1.122-0.188-1.744c0-0.615,0.06-1.195,0.179-1.739
					c0.119-0.543,0.313-1.02,0.583-1.429c0.269-0.41,0.62-0.734,1.055-0.972c0.435-0.239,0.967-0.358,1.597-0.358
					c0.623,0,1.15,0.117,1.583,0.352c0.433,0.234,0.783,0.553,1.053,0.957c0.269,0.403,0.464,0.875,0.585,1.416
					c0.121,0.54,0.182,1.115,0.182,1.727c0,0.619-0.063,1.2-0.188,1.744c-0.125,0.544-0.322,1.018-0.594,1.422
					c-0.271,0.403-0.623,0.723-1.059,0.957c-0.434,0.234-0.959,0.352-1.573,0.352c-0.615,0-1.138-0.113-1.568-0.34
					S21.813,25.295,21.543,24.896z M24.332,29.616c0,0.063-0.013,0.122-0.038,0.179c-0.023,0.057-0.057,0.105-0.098,0.148
					c-0.04,0.044-0.088,0.077-0.143,0.102s-0.113,0.037-0.174,0.037c-0.063,0-0.123-0.013-0.179-0.037s-0.104-0.058-0.145-0.102
					c-0.041-0.043-0.073-0.092-0.099-0.148c-0.024-0.057-0.037-0.116-0.037-0.179c0-0.061,0.013-0.119,0.037-0.173
					c0.025-0.056,0.058-0.104,0.099-0.145c0.04-0.04,0.089-0.073,0.145-0.098s0.115-0.036,0.179-0.036
					c0.061,0,0.119,0.012,0.174,0.036s0.103,0.058,0.143,0.098c0.041,0.041,0.074,0.089,0.098,0.145
					C24.319,29.497,24.332,29.556,24.332,29.616z M24.749,34.528h-1.723v-0.603h0.518v-2.423h-0.525V30.9h1.184v3.025h0.547V34.528z
					 M26.897,34.528h-1.722v-0.603H25.7v-4.243h-0.524V29.08h1.176v4.846h0.546V34.528z M28.03,33.08
					c0.015,0.085,0.036,0.167,0.064,0.243c0.087,0.233,0.226,0.409,0.415,0.527c0.19,0.117,0.405,0.177,0.646,0.177
					c0.188,0,0.372-0.026,0.551-0.079s0.366-0.135,0.562-0.247l0.263,0.444c-0.238,0.164-0.477,0.286-0.718,0.364
					c-0.24,0.08-0.49,0.119-0.749,0.119c-0.245,0-0.472-0.041-0.681-0.122c-0.209-0.082-0.389-0.203-0.539-0.364
					c-0.151-0.16-0.269-0.361-0.354-0.603c-0.085-0.24-0.128-0.521-0.128-0.84c0-0.259,0.036-0.504,0.109-0.732
					c0.071-0.23,0.18-0.432,0.323-0.603c0.144-0.172,0.321-0.308,0.533-0.408c0.213-0.101,0.46-0.15,0.743-0.15
					c0.272,0,0.501,0.041,0.684,0.124s0.333,0.192,0.448,0.329c0.115,0.136,0.203,0.292,0.262,0.467
					c0.06,0.176,0.102,0.354,0.125,0.536c0.012,0.089,0.02,0.179,0.022,0.27c0.004,0.092,0.006,0.18,0.006,0.266h-2.611
					C28.008,32.901,28.015,32.995,28.03,33.08z M34.172,31.874h-0.718c0-0.099-0.022-0.182-0.068-0.25
					c-0.045-0.069-0.104-0.125-0.176-0.168c-0.072-0.043-0.153-0.075-0.242-0.095s-0.175-0.029-0.259-0.029
					c-0.093,0-0.179,0.01-0.257,0.031c-0.079,0.021-0.146,0.051-0.202,0.091c-0.056,0.04-0.099,0.089-0.131,0.146
					s-0.047,0.12-0.047,0.19c0,0.122,0.036,0.218,0.109,0.289c0.074,0.071,0.197,0.137,0.37,0.197l0.696,0.245
					c0.299,0.101,0.517,0.237,0.654,0.41c0.139,0.173,0.207,0.379,0.207,0.619c0,0.161-0.032,0.309-0.097,0.442
					c-0.064,0.135-0.155,0.249-0.272,0.343c-0.118,0.096-0.26,0.169-0.426,0.222c-0.165,0.052-0.351,0.078-0.553,0.078
					c-0.282,0-0.513-0.045-0.689-0.136c-0.178-0.091-0.314-0.212-0.41-0.361h-0.363v-0.602h0.724c0,0.1,0.021,0.186,0.064,0.257
					c0.044,0.072,0.101,0.13,0.172,0.173c0.071,0.045,0.152,0.078,0.241,0.099c0.091,0.021,0.183,0.031,0.275,0.031
					c0.091,0,0.179-0.011,0.263-0.033s0.158-0.055,0.222-0.098c0.064-0.043,0.116-0.096,0.153-0.156s0.056-0.129,0.056-0.206
					c0-0.117-0.038-0.216-0.113-0.298c-0.076-0.081-0.206-0.155-0.388-0.221l-0.693-0.259c-0.281-0.101-0.491-0.228-0.628-0.383
					c-0.136-0.156-0.205-0.35-0.205-0.583c0-0.154,0.029-0.297,0.086-0.427c0.058-0.132,0.14-0.244,0.248-0.339
					c0.109-0.094,0.241-0.168,0.398-0.222c0.156-0.054,0.334-0.081,0.535-0.081c0.259,0,0.477,0.036,0.651,0.108
					c0.175,0.073,0.332,0.196,0.473,0.371h0.339V31.874z"/>
			</g>
		</g>
		<path fill="#3398DB" d="M35.291,12.819l-7.757,9.696c-0.03,0.32-0.076,0.631-0.145,0.928c-0.125,0.544-0.322,1.018-0.594,1.422
			c-0.271,0.403-0.623,0.723-1.059,0.957c-0.32,0.173-0.689,0.281-1.108,0.326l-3.757,4.696c0.136,0.011,0.265,0.031,0.379,0.07
			c0.156,0.054,0.289,0.135,0.399,0.245c0.109,0.109,0.192,0.25,0.25,0.422c0.058,0.171,0.086,0.374,0.086,0.607v1.736h0.504v0.603
			h-1.694v-0.603h0.511V32.27c0-0.277-0.069-0.488-0.209-0.632s-0.342-0.215-0.606-0.215c-0.029,0-0.06,0.008-0.089,0.011
			l-0.81,1.013v1.479h0.501v0.603h-1.691v-0.595l-3.913,4.892c0.275,0.176,0.599,0.28,0.947,0.28h19.129
			c0.976,0,1.773-0.798,1.773-1.773V14.433C36.338,13.716,35.906,13.099,35.291,12.819z M28.522,22.32h1.869v-1.87h1.529v1.87h1.874
			v1.528h-1.874v1.874h-1.529v-1.874h-1.869V22.32z M23.458,29.443c0.025-0.056,0.058-0.104,0.099-0.145
			c0.04-0.04,0.089-0.073,0.145-0.098s0.115-0.036,0.179-0.036c0.061,0,0.119,0.012,0.174,0.036s0.103,0.058,0.143,0.098
			c0.041,0.041,0.074,0.089,0.098,0.145c0.025,0.054,0.038,0.112,0.038,0.173c0,0.063-0.013,0.122-0.038,0.179
			c-0.023,0.057-0.057,0.105-0.098,0.148c-0.04,0.044-0.088,0.077-0.143,0.102s-0.113,0.037-0.174,0.037
			c-0.063,0-0.123-0.013-0.179-0.037s-0.104-0.058-0.145-0.102c-0.041-0.043-0.073-0.092-0.099-0.148
			c-0.024-0.057-0.037-0.116-0.037-0.179C23.421,29.556,23.434,29.497,23.458,29.443z M24.749,34.528h-1.723v-0.603h0.518v-2.423
			h-0.525V30.9h1.184v3.025h0.547V34.528z M26.897,34.528h-1.722v-0.603H25.7v-4.243h-0.524V29.08h1.176v4.846h0.546V34.528z
			 M28.03,33.08c0.015,0.085,0.036,0.167,0.064,0.243c0.087,0.233,0.226,0.409,0.415,0.527c0.19,0.117,0.405,0.177,0.646,0.177
			c0.188,0,0.372-0.026,0.551-0.079s0.366-0.135,0.562-0.247l0.263,0.444c-0.238,0.164-0.477,0.286-0.718,0.364
			c-0.24,0.08-0.49,0.119-0.749,0.119c-0.245,0-0.472-0.041-0.681-0.122c-0.209-0.082-0.389-0.203-0.539-0.364
			c-0.151-0.16-0.269-0.361-0.354-0.603c-0.085-0.24-0.128-0.521-0.128-0.84c0-0.259,0.036-0.504,0.109-0.732
			c0.071-0.23,0.18-0.432,0.323-0.603c0.144-0.172,0.321-0.308,0.533-0.408c0.213-0.101,0.46-0.15,0.743-0.15
			c0.272,0,0.501,0.041,0.684,0.124s0.333,0.192,0.448,0.329c0.115,0.136,0.203,0.292,0.262,0.467
			c0.06,0.176,0.102,0.354,0.125,0.536c0.012,0.089,0.02,0.179,0.022,0.27c0.004,0.092,0.006,0.18,0.006,0.266h-2.611
			C28.008,32.901,28.015,32.995,28.03,33.08z M34.172,31.874h-0.718c0-0.099-0.022-0.182-0.068-0.25
			c-0.045-0.069-0.104-0.125-0.176-0.168c-0.072-0.043-0.153-0.075-0.242-0.095s-0.175-0.029-0.259-0.029
			c-0.093,0-0.179,0.01-0.257,0.031c-0.079,0.021-0.146,0.051-0.202,0.091c-0.056,0.04-0.099,0.089-0.131,0.146
			s-0.047,0.12-0.047,0.19c0,0.122,0.036,0.218,0.109,0.289c0.074,0.071,0.197,0.137,0.37,0.197l0.696,0.245
			c0.299,0.101,0.517,0.237,0.654,0.41c0.139,0.173,0.207,0.379,0.207,0.619c0,0.161-0.032,0.309-0.097,0.442
			c-0.064,0.135-0.155,0.249-0.272,0.343c-0.118,0.096-0.26,0.169-0.426,0.222c-0.165,0.052-0.351,0.078-0.553,0.078
			c-0.282,0-0.513-0.045-0.689-0.136c-0.178-0.091-0.314-0.212-0.41-0.361h-0.363v-0.602h0.724c0,0.1,0.021,0.186,0.064,0.257
			c0.044,0.072,0.101,0.13,0.172,0.173c0.071,0.045,0.152,0.078,0.241,0.099c0.091,0.021,0.183,0.031,0.275,0.031
			c0.091,0,0.179-0.011,0.263-0.033s0.158-0.055,0.222-0.098c0.064-0.043,0.116-0.096,0.153-0.156s0.056-0.129,0.056-0.206
			c0-0.117-0.038-0.216-0.113-0.298c-0.076-0.081-0.206-0.155-0.388-0.221l-0.693-0.259c-0.281-0.101-0.491-0.228-0.628-0.383
			c-0.136-0.156-0.205-0.35-0.205-0.583c0-0.154,0.029-0.297,0.086-0.427c0.058-0.132,0.14-0.244,0.248-0.339
			c0.109-0.094,0.241-0.168,0.398-0.222c0.156-0.054,0.334-0.081,0.535-0.081c0.259,0,0.477,0.036,0.651,0.108
			c0.175,0.073,0.332,0.196,0.473,0.371h0.339V31.874z M35.251,42.86c2.444,0,4.435-1.989,4.435-4.435V13.337
			c0-1.503-0.754-2.832-1.901-3.634l-1.111,1.389c0.743,0.472,1.239,1.301,1.239,2.245v25.088c0,1.468-1.194,2.66-2.661,2.66H14.749
			c-0.611,0-1.173-0.209-1.623-0.557l-1.107,1.384c0.754,0.591,1.7,0.947,2.73,0.947h7.032v6.926
			c0.452,0.059,0.908,0.104,1.368,0.139v-5.4H25V50c1.089,0,2.158-0.077,3.21-0.212V42.86H35.251z"/>
	</g>
</g>
</svg>
