<?xml version="1.0" encoding="utf-8"?>
<!-- Generator: Adobe Illustrator 16.0.0, SVG Export Plug-In . SVG Version: 6.00 Build 0)  -->
<!DOCTYPE svg PUBLIC "-//W3C//DTD SVG 1.1//EN" "http://www.w3.org/Graphics/SVG/1.1/DTD/svg11.dtd">
<svg version="1.1" id="Layer_1" xmlns="http://www.w3.org/2000/svg" xmlns:xlink="http://www.w3.org/1999/xlink" x="0px" y="0px"
	 width="50px" height="50px" viewBox="0 0 50 50" enable-background="new 0 0 50 50" xml:space="preserve">
<g>
	<g>
		<path fill="#E57D21" d="M35.668,12.511H14.333c-2.079,0-3.771,1.692-3.771,3.771v17.436c0,2.079,1.692,3.771,3.771,3.771h21.335
			c2.08,0,3.771-1.692,3.771-3.771V16.283C39.439,14.203,37.748,12.511,35.668,12.511z M37.931,33.719
			c0,1.247-1.015,2.263-2.263,2.263H14.333c-1.248,0-2.263-1.016-2.263-2.263V16.283c0-1.248,1.015-2.263,2.263-2.263h21.335
			c1.248,0,2.263,1.016,2.263,2.263V33.719z"/>
		<path fill="#E57D21" d="M16.62,29.411c-0.108,0-0.208,0.021-0.304,0.061c-0.095,0.04-0.178,0.099-0.249,0.175
			c-0.071,0.078-0.127,0.171-0.168,0.282c-0.041,0.111-0.061,0.239-0.061,0.382c0,0.157,0.02,0.296,0.059,0.415
			c0.04,0.119,0.094,0.22,0.164,0.3c0.07,0.081,0.154,0.143,0.253,0.184c0.098,0.041,0.205,0.061,0.321,0.061
			c0.135,0,0.249-0.02,0.341-0.061c0.091-0.039,0.176-0.1,0.252-0.18v-1.422c-0.082-0.068-0.175-0.118-0.282-0.149
			C16.84,29.427,16.731,29.411,16.62,29.411z"/>
		<path fill="#E57D21" d="M19.117,30.48c-0.073,0.02-0.136,0.048-0.188,0.086c-0.053,0.037-0.095,0.084-0.124,0.14
			s-0.044,0.119-0.044,0.191c0,0.067,0.012,0.126,0.037,0.175c0.024,0.05,0.06,0.092,0.104,0.125
			c0.045,0.033,0.098,0.06,0.161,0.076c0.062,0.018,0.131,0.025,0.206,0.025c0.061,0,0.122-0.007,0.182-0.021
			s0.118-0.035,0.172-0.061s0.104-0.055,0.149-0.088c0.046-0.034,0.084-0.068,0.115-0.104l0.003-0.573h-0.53
			C19.271,30.451,19.19,30.461,19.117,30.48z"/>
		<path fill="#E57D21" d="M34.738,15.358H15.264c-0.83,0-1.509,0.678-1.509,1.509v16.268c0,0.829,0.679,1.509,1.509,1.509h19.474
			c0.829,0,1.508-0.68,1.508-1.509V16.867C36.246,16.036,35.567,15.358,34.738,15.358z M26.139,23.142
			c-0.056-0.132-0.135-0.244-0.237-0.338c-0.104-0.094-0.229-0.167-0.378-0.221c-0.149-0.053-0.315-0.08-0.499-0.08h-0.801v-1.564
			h0.813c0.167,0,0.317-0.023,0.449-0.068c0.132-0.046,0.244-0.109,0.335-0.189c0.091-0.081,0.161-0.176,0.209-0.287
			c0.047-0.111,0.071-0.233,0.071-0.367c0-0.114-0.026-0.228-0.078-0.343c-0.051-0.114-0.126-0.217-0.223-0.309
			s-0.214-0.166-0.349-0.223c-0.136-0.058-0.286-0.086-0.449-0.086c-0.142,0-0.276,0.024-0.404,0.072
			c-0.127,0.048-0.24,0.111-0.337,0.191c-0.098,0.08-0.175,0.172-0.232,0.278c-0.057,0.105-0.086,0.283-0.086,0.535l-1.781-0.011
			c0.004-0.371,0.074-0.724,0.212-1.06c0.137-0.336,0.329-0.631,0.575-0.888c0.246-0.255,0.543-0.458,0.891-0.606
			c0.348-0.149,0.735-0.224,1.163-0.224c0.404,0,0.782,0.069,1.133,0.209c0.352,0.139,0.657,0.327,0.916,0.564
			c0.26,0.237,0.463,0.51,0.61,0.819c0.146,0.309,0.22,0.634,0.22,0.973c0,0.37-0.076,0.707-0.229,1.011
			c-0.152,0.303-0.36,0.549-0.624,0.736c0.137,0.077,0.266,0.178,0.384,0.304s0.222,0.271,0.313,0.435
			c0.089,0.164,0.159,0.344,0.211,0.539c0.052,0.194,0.077,0.398,0.077,0.612c0,0.374-0.076,0.729-0.229,1.065
			s-0.363,0.63-0.633,0.885c-0.27,0.254-0.587,0.455-0.953,0.604c-0.367,0.149-0.762,0.224-1.186,0.224
			c-0.4,0-0.774-0.063-1.119-0.188c-0.346-0.127-0.648-0.301-0.908-0.524c-0.26-0.223-0.469-0.487-0.627-0.79
			c-0.158-0.304-0.251-0.557-0.281-0.759c-0.028-0.203-0.044-0.413-0.049-0.63h1.799c0.022,0.4,0.138,0.695,0.346,0.885
			c0.208,0.188,0.495,0.283,0.862,0.283c0.164,0,0.317-0.027,0.461-0.083c0.143-0.056,0.268-0.13,0.375-0.224
			c0.107-0.093,0.192-0.203,0.255-0.329s0.095-0.262,0.095-0.406C26.222,23.415,26.194,23.273,26.139,23.142z M18.057,31.61h-0.829
			v-0.208c-0.082,0.083-0.176,0.148-0.284,0.195c-0.108,0.046-0.23,0.069-0.368,0.069c-0.172,0-0.332-0.029-0.479-0.089
			c-0.148-0.061-0.276-0.147-0.385-0.263c-0.108-0.115-0.194-0.257-0.255-0.424c-0.061-0.168-0.092-0.36-0.092-0.576
			c0-0.195,0.03-0.374,0.088-0.535c0.059-0.161,0.143-0.298,0.25-0.412c0.107-0.113,0.238-0.201,0.39-0.265
			c0.152-0.063,0.321-0.095,0.507-0.095c0.123,0,0.234,0.015,0.336,0.041c0.102,0.027,0.199,0.074,0.292,0.141v-0.974h-0.345v-0.421
			h0.801v3.393h0.373V31.61z M20.624,31.61h-0.738v-0.235c-0.096,0.09-0.203,0.164-0.319,0.221c-0.117,0.058-0.25,0.086-0.398,0.086
			c-0.125,0-0.238-0.02-0.342-0.059c-0.104-0.039-0.194-0.093-0.269-0.16c-0.076-0.068-0.134-0.147-0.176-0.237
			c-0.042-0.09-0.062-0.186-0.062-0.286c0-0.109,0.016-0.204,0.047-0.287c0.032-0.084,0.075-0.156,0.127-0.218
			c0.053-0.061,0.115-0.112,0.187-0.154c0.071-0.041,0.146-0.075,0.223-0.1c0.077-0.026,0.157-0.044,0.238-0.055
			s0.158-0.016,0.231-0.016c0.118,0,0.217,0.004,0.297,0.011c0.08,0.008,0.153,0.018,0.218,0.03l0.002-0.208
			c0-0.09-0.013-0.168-0.04-0.233c-0.026-0.066-0.063-0.122-0.11-0.165c-0.047-0.043-0.104-0.075-0.17-0.097
			c-0.066-0.021-0.14-0.032-0.222-0.032c-0.077,0-0.15,0.006-0.22,0.016c-0.071,0.011-0.137,0.025-0.198,0.042
			c-0.061,0.018-0.118,0.037-0.169,0.06c-0.052,0.021-0.096,0.045-0.131,0.069l-0.15-0.316c0.061-0.039,0.127-0.075,0.199-0.108
			c0.072-0.034,0.147-0.063,0.227-0.086c0.08-0.024,0.16-0.043,0.243-0.057s0.164-0.021,0.244-0.021c0.147,0,0.28,0.019,0.397,0.054
			c0.118,0.034,0.217,0.089,0.299,0.162c0.083,0.074,0.145,0.168,0.189,0.281c0.044,0.113,0.066,0.25,0.066,0.408l-0.002,1.27h0.282
			V31.61z M23.414,29.492h-0.263l-1.13,2.852h0.348v0.422h-1.025v-0.422h0.309l0.27-0.699l-0.848-2.152h-0.206V29.07h0.964v0.422
			h-0.302l0.596,1.621l0.623-1.621h-0.299V29.07h0.963V29.492z M25.789,29.752h-0.501c0-0.068-0.016-0.127-0.048-0.175
			s-0.073-0.088-0.124-0.117c-0.05-0.031-0.107-0.053-0.169-0.067c-0.062-0.014-0.123-0.021-0.182-0.021
			c-0.065,0-0.125,0.008-0.18,0.021c-0.055,0.016-0.102,0.037-0.141,0.064c-0.04,0.028-0.07,0.062-0.092,0.102
			c-0.022,0.04-0.033,0.085-0.033,0.134c0,0.085,0.025,0.152,0.077,0.202c0.052,0.05,0.138,0.096,0.259,0.139l0.488,0.172
			c0.209,0.07,0.362,0.166,0.459,0.286c0.096,0.121,0.144,0.267,0.144,0.435c0,0.112-0.021,0.216-0.066,0.311
			c-0.045,0.094-0.108,0.174-0.191,0.24c-0.083,0.065-0.182,0.117-0.298,0.154c-0.115,0.036-0.245,0.055-0.387,0.055
			c-0.198,0-0.359-0.032-0.483-0.096c-0.125-0.063-0.22-0.147-0.288-0.253h-0.254v-0.421h0.508c0,0.069,0.015,0.131,0.045,0.18
			c0.03,0.05,0.07,0.091,0.12,0.122s0.106,0.054,0.169,0.068s0.127,0.021,0.192,0.021c0.063,0,0.125-0.008,0.184-0.022
			c0.059-0.016,0.111-0.039,0.156-0.069s0.081-0.066,0.106-0.108c0.026-0.043,0.04-0.092,0.04-0.145c0-0.082-0.027-0.151-0.08-0.209
			c-0.053-0.058-0.144-0.108-0.271-0.154l-0.485-0.182c-0.198-0.07-0.345-0.16-0.44-0.268c-0.096-0.109-0.144-0.245-0.144-0.409
			c0-0.107,0.021-0.207,0.061-0.299s0.098-0.17,0.174-0.236c0.076-0.066,0.169-0.118,0.278-0.156
			c0.11-0.037,0.235-0.057,0.375-0.057c0.182,0,0.333,0.026,0.456,0.076c0.123,0.051,0.233,0.137,0.331,0.26h0.237V29.752z
			 M26.428,31.682h-0.427l1.471-3.918h0.427L26.428,31.682z M31.76,29.492h-0.218l-0.696,2.157h-0.422l-0.576-2.027l-0.574,2.027
			h-0.426l-0.691-2.157h-0.219V29.07h0.805v0.422h-0.118l0.444,1.621l0.607-2.043h0.383l0.581,2.038l0.463-1.616h-0.146V29.07h0.804
			V29.492z M34.837,31.61h-0.536l-1.04-1.135h-0.336v0.713h0.211v0.422H32.05v-0.422h0.416v-2.972h-0.431v-0.421h0.895v0.421h-0.005
			v1.898h0.44l0.604-0.623h-0.151V29.07h0.963v0.422h-0.321l-0.772,0.797l0.844,0.899h0.307V31.61z"/>
	</g>
</g>
</svg>
