<?xml version="1.0" encoding="utf-8"?>
<!-- Generator: Adobe Illustrator 16.0.0, SVG Export Plug-In . SVG Version: 6.00 Build 0)  -->
<!DOCTYPE svg PUBLIC "-//W3C//DTD SVG 1.1//EN" "http://www.w3.org/Graphics/SVG/1.1/DTD/svg11.dtd">
<svg version="1.1" id="Layer_1" xmlns="http://www.w3.org/2000/svg" xmlns:xlink="http://www.w3.org/1999/xlink" x="0px" y="0px"
	 width="50px" height="50px" viewBox="0 0 50 50" enable-background="new 0 0 50 50" xml:space="preserve">
<g>
	<path fill="#27AE60" d="M35.668,12.511H14.332c-2.079,0-3.771,1.692-3.771,3.771v17.435c0,2.08,1.692,3.772,3.771,3.772h21.336
		c2.08,0,3.771-1.692,3.771-3.772V16.283C39.439,14.203,37.748,12.511,35.668,12.511z M37.931,33.718
		c0,1.248-1.015,2.264-2.263,2.264H14.332c-1.248,0-2.262-1.016-2.262-2.264V16.283c0-1.248,1.015-2.263,2.262-2.263h21.336
		c1.248,0,2.263,1.015,2.263,2.263V33.718z"/>
	<path fill="#27AE60" d="M16.62,29.411c-0.108,0-0.209,0.02-0.305,0.061c-0.094,0.04-0.178,0.099-0.249,0.175
		c-0.071,0.077-0.127,0.171-0.167,0.282c-0.041,0.111-0.062,0.239-0.062,0.382c0,0.157,0.02,0.296,0.059,0.415s0.094,0.22,0.165,0.3
		c0.07,0.081,0.154,0.143,0.252,0.183c0.098,0.042,0.205,0.062,0.321,0.062c0.135,0,0.249-0.02,0.34-0.061
		c0.092-0.04,0.176-0.1,0.253-0.18v-1.422c-0.082-0.069-0.176-0.118-0.282-0.149C16.84,29.427,16.731,29.411,16.62,29.411z"/>
	<path fill="#27AE60" d="M34.737,15.358H15.263c-0.83,0-1.509,0.679-1.509,1.509v16.268c0,0.829,0.679,1.509,1.509,1.509h19.474
		c0.83,0,1.509-0.68,1.509-1.509V16.867C36.246,16.037,35.567,15.358,34.737,15.358z M26.396,22.955
		c-0.062-0.148-0.149-0.28-0.264-0.395c-0.115-0.115-0.252-0.206-0.412-0.275s-0.338-0.103-0.533-0.103
		c-0.248,0-0.463,0.024-0.644,0.072c-0.182,0.047-0.366,0.115-0.553,0.204l-1.552-0.287V17.55h5.514v1.752h-3.859v1.626
		c0.184-0.069,0.381-0.127,0.593-0.175c0.212-0.047,0.44-0.071,0.685-0.071c0.388,0,0.758,0.06,1.108,0.18
		c0.35,0.121,0.656,0.298,0.922,0.533c0.266,0.235,0.477,0.524,0.633,0.867c0.156,0.344,0.234,0.741,0.234,1.192
		c0,0.484-0.086,0.911-0.258,1.279s-0.398,0.677-0.682,0.925c-0.282,0.248-0.604,0.436-0.965,0.562
		c-0.36,0.125-0.729,0.188-1.108,0.188c-0.375,0-0.729-0.049-1.063-0.146c-0.333-0.097-0.635-0.243-0.901-0.438
		c-0.267-0.194-0.494-0.438-0.679-0.729c-0.186-0.293-0.312-0.633-0.381-1.022l1.769-0.48c0.023,0.179,0.071,0.339,0.144,0.48
		c0.072,0.141,0.163,0.262,0.272,0.36c0.109,0.1,0.235,0.176,0.378,0.229s0.296,0.08,0.461,0.08c0.184,0,0.351-0.035,0.503-0.104
		c0.153-0.068,0.283-0.163,0.39-0.283c0.107-0.12,0.19-0.261,0.249-0.421c0.06-0.16,0.089-0.333,0.089-0.521
		C26.487,23.257,26.457,23.104,26.396,22.955z M18.056,31.61h-0.828v-0.208c-0.082,0.083-0.177,0.147-0.284,0.195
		c-0.108,0.046-0.231,0.069-0.369,0.069c-0.171,0-0.331-0.029-0.479-0.089c-0.147-0.061-0.276-0.147-0.384-0.263
		c-0.109-0.115-0.194-0.257-0.256-0.425c-0.061-0.167-0.091-0.359-0.091-0.575c0-0.196,0.03-0.374,0.088-0.535
		s0.142-0.298,0.25-0.412c0.108-0.113,0.238-0.201,0.39-0.265s0.321-0.095,0.508-0.095c0.122,0,0.234,0.015,0.335,0.041
		c0.102,0.027,0.198,0.073,0.292,0.141v-0.974h-0.346v-0.421h0.802v3.393h0.373V31.61z M20.624,31.61h-0.739v-0.235
		c-0.096,0.09-0.203,0.164-0.32,0.221c-0.117,0.058-0.25,0.086-0.398,0.086c-0.124,0-0.238-0.02-0.342-0.059
		c-0.104-0.039-0.193-0.093-0.269-0.161c-0.075-0.068-0.134-0.146-0.175-0.236c-0.042-0.09-0.062-0.186-0.062-0.286
		c0-0.109,0.016-0.204,0.048-0.288c0.031-0.083,0.074-0.155,0.127-0.217c0.052-0.062,0.115-0.112,0.186-0.154
		c0.071-0.041,0.145-0.075,0.223-0.1c0.078-0.026,0.157-0.044,0.238-0.055c0.081-0.011,0.158-0.017,0.231-0.017
		c0.118,0,0.216,0.005,0.296,0.012c0.08,0.008,0.153,0.018,0.218,0.03l0.002-0.208c0-0.09-0.013-0.168-0.039-0.234
		c-0.026-0.065-0.063-0.121-0.111-0.164c-0.047-0.043-0.104-0.075-0.17-0.097c-0.066-0.021-0.14-0.032-0.222-0.032
		c-0.077,0-0.15,0.005-0.221,0.016c-0.07,0.011-0.136,0.025-0.197,0.042c-0.062,0.018-0.118,0.037-0.169,0.06
		c-0.051,0.021-0.095,0.045-0.131,0.069l-0.15-0.316c0.06-0.039,0.127-0.075,0.199-0.109c0.072-0.033,0.147-0.062,0.227-0.085
		c0.08-0.024,0.16-0.043,0.243-0.057c0.083-0.015,0.165-0.021,0.244-0.021c0.147,0,0.279,0.019,0.397,0.054
		c0.118,0.034,0.217,0.089,0.299,0.162c0.081,0.074,0.144,0.167,0.188,0.281c0.044,0.113,0.067,0.25,0.067,0.408l-0.003,1.27h0.283
		V31.61z M23.414,29.492h-0.263l-1.13,2.852h0.349v0.422h-1.025v-0.422h0.309l0.27-0.699l-0.848-2.152h-0.206V29.07h0.964v0.422
		h-0.302l0.596,1.621l0.623-1.621H22.45V29.07h0.964V29.492z M25.789,29.752h-0.502c0-0.068-0.016-0.127-0.048-0.175
		c-0.032-0.049-0.074-0.088-0.124-0.117c-0.051-0.031-0.106-0.053-0.169-0.067c-0.063-0.014-0.123-0.021-0.182-0.021
		c-0.065,0-0.125,0.008-0.181,0.021c-0.054,0.016-0.101,0.037-0.141,0.064c-0.039,0.028-0.069,0.062-0.091,0.102
		c-0.022,0.04-0.034,0.085-0.034,0.134c0,0.085,0.026,0.152,0.078,0.202c0.051,0.05,0.137,0.096,0.259,0.139l0.488,0.172
		c0.209,0.069,0.361,0.166,0.458,0.286c0.097,0.121,0.145,0.267,0.145,0.435c0,0.112-0.022,0.216-0.067,0.311
		c-0.045,0.093-0.108,0.174-0.191,0.239c-0.083,0.066-0.182,0.118-0.298,0.155c-0.116,0.036-0.245,0.055-0.387,0.055
		c-0.198,0-0.359-0.032-0.483-0.096s-0.22-0.148-0.287-0.253h-0.254v-0.421h0.507c0,0.069,0.015,0.13,0.045,0.18
		s0.07,0.091,0.12,0.121c0.05,0.032,0.106,0.054,0.169,0.068c0.063,0.016,0.127,0.022,0.193,0.022c0.063,0,0.125-0.008,0.184-0.022
		c0.059-0.016,0.11-0.039,0.156-0.069c0.045-0.03,0.08-0.066,0.107-0.108c0.026-0.043,0.039-0.092,0.039-0.145
		c0-0.082-0.027-0.151-0.08-0.209c-0.053-0.058-0.144-0.108-0.271-0.154l-0.486-0.182c-0.197-0.07-0.344-0.16-0.44-0.268
		c-0.096-0.11-0.144-0.245-0.144-0.409c0-0.107,0.02-0.207,0.061-0.299c0.04-0.092,0.097-0.17,0.174-0.237
		c0.076-0.065,0.168-0.117,0.278-0.155c0.11-0.037,0.235-0.057,0.375-0.057c0.182,0,0.333,0.026,0.456,0.076
		c0.123,0.051,0.233,0.137,0.331,0.26h0.237V29.752z M26.428,31.682H26l1.472-3.918h0.427L26.428,31.682z M31.76,29.492h-0.219
		l-0.695,2.157h-0.422l-0.576-2.027l-0.574,2.027h-0.427l-0.691-2.157h-0.218V29.07h0.805v0.422h-0.118l0.443,1.621l0.608-2.043
		h0.382l0.582,2.038l0.463-1.616h-0.147V29.07h0.805V29.492z M34.837,31.61H34.3l-1.04-1.135h-0.335v0.713h0.211v0.422h-1.087
		v-0.422h0.417v-2.972h-0.432v-0.421h0.895v0.421h-0.004v1.897h0.44l0.604-0.622h-0.152V29.07h0.964v0.422h-0.321l-0.772,0.797
		l0.844,0.899h0.307V31.61z"/>
	<path fill="#27AE60" d="M19.117,30.48c-0.073,0.02-0.136,0.048-0.189,0.086c-0.053,0.037-0.094,0.084-0.124,0.14
		s-0.044,0.119-0.044,0.191c0,0.066,0.012,0.125,0.037,0.175s0.06,0.092,0.104,0.125c0.045,0.033,0.099,0.06,0.161,0.076
		c0.062,0.018,0.131,0.025,0.206,0.025c0.06,0,0.121-0.008,0.182-0.022c0.06-0.015,0.117-0.034,0.171-0.06
		c0.054-0.025,0.104-0.055,0.149-0.088c0.046-0.034,0.084-0.068,0.115-0.104l0.003-0.573h-0.53
		C19.271,30.451,19.19,30.461,19.117,30.48z"/>
</g>
</svg>
