<?xml version="1.0" encoding="utf-8"?>
<!-- Generator: Adobe Illustrator 16.0.0, SVG Export Plug-In . SVG Version: 6.00 Build 0)  -->
<!DOCTYPE svg PUBLIC "-//W3C//DTD SVG 1.1//EN" "http://www.w3.org/Graphics/SVG/1.1/DTD/svg11.dtd">
<svg version="1.1" id="Layer_1" xmlns="http://www.w3.org/2000/svg" xmlns:xlink="http://www.w3.org/1999/xlink" x="0px" y="0px"
	 width="50px" height="50px" viewBox="0 0 50 50" enable-background="new 0 0 50 50" xml:space="preserve">
<g>
	<g>
		<g>
			<path fill="#16A085" d="M35.415,8.903H14.913c-2.445,0-4.434,1.989-4.434,4.434v25.088c0,2.445,1.989,4.435,4.434,4.435h20.502
				c2.444,0,4.434-1.989,4.434-4.435V13.337C39.849,10.893,37.859,8.903,35.415,8.903z M38.076,38.426
				c0,1.468-1.193,2.66-2.661,2.66H14.913c-1.467,0-2.661-1.192-2.661-2.66V13.337c0-1.467,1.194-2.66,2.661-2.66h20.502
				c1.468,0,2.661,1.193,2.661,2.66V38.426z"/>
			<path fill="#16A085" d="M20.332,22.733c-0.144-0.122-0.31-0.216-0.499-0.283c-0.188-0.067-0.391-0.101-0.605-0.101
				c-0.274,0-0.522,0.05-0.744,0.151c-0.223,0.101-0.405,0.246-0.549,0.435c-0.058,0.112-0.106,0.233-0.145,0.363
				c-0.038,0.131-0.057,0.274-0.057,0.432s0.03,0.317,0.09,0.481c0.061,0.164,0.154,0.313,0.28,0.45
				c0.126,0.138,0.285,0.25,0.479,0.338c0.193,0.087,0.422,0.131,0.686,0.131c0.18,0,0.362-0.031,0.546-0.094
				c0.184-0.063,0.347-0.153,0.491-0.27c0.144-0.117,0.261-0.262,0.353-0.435c0.092-0.173,0.138-0.369,0.138-0.59
				c0-0.211-0.042-0.401-0.125-0.571C20.588,23,20.475,22.854,20.332,22.733z"/>
			<path fill="#16A085" d="M34.728,12.659H15.599c-0.976,0-1.774,0.798-1.774,1.774v22.899c0,0.976,0.799,1.773,1.774,1.773h19.128
				c0.977,0,1.774-0.798,1.774-1.773V14.433C36.502,13.457,35.704,12.659,34.728,12.659z M23.772,22.524h3.709v1.158h-3.709V22.524z
				 M23.411,30.371c0.024-0.054,0.058-0.103,0.098-0.143c0.041-0.041,0.09-0.074,0.146-0.099c0.057-0.024,0.116-0.036,0.179-0.036
				c0.061,0,0.118,0.012,0.174,0.036c0.054,0.024,0.103,0.058,0.143,0.099c0.041,0.04,0.074,0.089,0.099,0.143
				c0.024,0.056,0.037,0.113,0.037,0.174c0,0.063-0.013,0.122-0.037,0.179c-0.024,0.056-0.058,0.105-0.099,0.148
				c-0.04,0.044-0.089,0.077-0.143,0.102c-0.056,0.024-0.113,0.037-0.174,0.037c-0.063,0-0.122-0.013-0.179-0.037
				c-0.056-0.024-0.104-0.058-0.146-0.102c-0.04-0.043-0.073-0.093-0.098-0.148c-0.024-0.057-0.037-0.116-0.037-0.179
				C23.374,30.484,23.387,30.427,23.411,30.371z M22.443,35.457h-1.694v-0.603h0.511v-1.656c0-0.277-0.071-0.488-0.21-0.632
				s-0.341-0.215-0.606-0.215c-0.156,0-0.316,0.037-0.479,0.111c-0.163,0.075-0.303,0.169-0.42,0.283v2.108h0.501v0.603h-1.691
				v-0.603h0.511v-1.656c0-0.277-0.07-0.488-0.211-0.632s-0.344-0.215-0.607-0.215c-0.152,0-0.305,0.036-0.459,0.108
				s-0.3,0.162-0.438,0.27v2.125h0.511v0.603h-1.694v-0.603h0.504v-2.423h-0.504V31.83h1.155v0.423h0.007
				c0.08-0.067,0.163-0.131,0.251-0.19c0.087-0.06,0.179-0.111,0.274-0.155c0.095-0.045,0.195-0.08,0.299-0.105
				c0.104-0.026,0.212-0.039,0.324-0.039c0.262,0,0.486,0.049,0.676,0.146c0.189,0.097,0.334,0.248,0.438,0.454
				c0.089-0.079,0.182-0.156,0.28-0.23c0.098-0.073,0.2-0.137,0.307-0.19c0.105-0.054,0.217-0.096,0.334-0.13
				c0.116-0.032,0.237-0.049,0.363-0.049c0.196,0,0.373,0.027,0.529,0.081c0.156,0.053,0.29,0.136,0.399,0.245
				c0.109,0.109,0.192,0.25,0.249,0.422c0.058,0.171,0.087,0.373,0.087,0.607v1.736h0.504V35.457z M22.517,25.042
				c-0.187,0.418-0.441,0.779-0.764,1.084c-0.324,0.306-0.7,0.545-1.129,0.718c-0.428,0.173-0.885,0.259-1.37,0.259
				c-0.476,0-0.927-0.086-1.35-0.259c-0.424-0.173-0.796-0.409-1.115-0.707c-0.318-0.299-0.571-0.651-0.757-1.061
				c-0.186-0.408-0.279-0.849-0.279-1.319c0-0.226,0.022-0.439,0.067-0.644s0.105-0.404,0.182-0.599
				c0.075-0.196,0.164-0.387,0.262-0.576c0.1-0.188,0.203-0.379,0.31-0.572l2.525-4.565h2.356l-2.081,3.643
				c0.121-0.009,0.239-0.008,0.354,0.003c0.115,0.012,0.228,0.028,0.34,0.05c0.382,0.072,0.738,0.203,1.071,0.395
				c0.332,0.191,0.62,0.426,0.865,0.706c0.244,0.281,0.438,0.599,0.579,0.954c0.142,0.354,0.212,0.732,0.212,1.13
				C22.796,24.171,22.703,24.624,22.517,25.042z M24.701,35.457h-1.722v-0.603h0.518v-2.423h-0.525V31.83h1.184v3.024h0.546V35.457z
				 M26.851,35.457h-1.723v-0.603h0.525v-4.243h-0.525V30.01h1.176v4.845h0.547V35.457z M27.983,34.009
				c0.015,0.085,0.036,0.167,0.064,0.243c0.087,0.233,0.225,0.409,0.415,0.527s0.405,0.176,0.646,0.176
				c0.188,0,0.372-0.025,0.551-0.078s0.365-0.135,0.562-0.247l0.263,0.445c-0.237,0.163-0.477,0.284-0.718,0.363
				c-0.24,0.079-0.49,0.119-0.749,0.119c-0.245,0-0.472-0.04-0.681-0.122s-0.389-0.203-0.539-0.364s-0.269-0.362-0.354-0.602
				c-0.086-0.241-0.129-0.521-0.129-0.841c0-0.259,0.037-0.504,0.109-0.733s0.18-0.431,0.324-0.603
				c0.143-0.171,0.321-0.307,0.533-0.407c0.213-0.101,0.46-0.151,0.742-0.151c0.273,0,0.502,0.043,0.685,0.125
				s0.333,0.192,0.448,0.329s0.203,0.292,0.263,0.468c0.06,0.175,0.101,0.353,0.124,0.535c0.012,0.089,0.02,0.179,0.023,0.27
				c0.003,0.091,0.004,0.18,0.004,0.267H27.96C27.96,33.83,27.969,33.924,27.983,34.009z M34.126,32.803h-0.718
				c0-0.098-0.023-0.182-0.069-0.25c-0.045-0.069-0.104-0.125-0.176-0.168s-0.153-0.074-0.242-0.095
				c-0.089-0.02-0.175-0.029-0.259-0.029c-0.093,0-0.18,0.01-0.257,0.031c-0.078,0.021-0.146,0.052-0.202,0.091
				c-0.056,0.04-0.1,0.088-0.131,0.146s-0.048,0.12-0.048,0.19c0,0.121,0.037,0.218,0.11,0.289c0.074,0.07,0.197,0.137,0.37,0.197
				l0.696,0.245c0.299,0.101,0.518,0.237,0.654,0.409c0.139,0.173,0.207,0.38,0.207,0.62c0,0.161-0.032,0.309-0.097,0.443
				c-0.064,0.134-0.155,0.248-0.273,0.343c-0.117,0.095-0.26,0.168-0.425,0.221c-0.166,0.052-0.35,0.078-0.553,0.078
				c-0.282,0-0.513-0.045-0.69-0.136c-0.177-0.092-0.313-0.212-0.409-0.361h-0.364v-0.602h0.725c0,0.101,0.021,0.186,0.065,0.257
				c0.043,0.071,0.101,0.13,0.171,0.174c0.071,0.044,0.152,0.077,0.241,0.098c0.091,0.021,0.182,0.032,0.275,0.032
				c0.091,0,0.178-0.012,0.263-0.034c0.084-0.021,0.158-0.054,0.223-0.098c0.063-0.043,0.114-0.095,0.151-0.156
				c0.037-0.061,0.057-0.129,0.057-0.206c0-0.116-0.038-0.216-0.114-0.298c-0.075-0.082-0.204-0.154-0.387-0.22l-0.693-0.26
				c-0.281-0.101-0.491-0.228-0.628-0.383c-0.137-0.156-0.205-0.35-0.205-0.583c0-0.154,0.028-0.297,0.086-0.427
				c0.058-0.131,0.14-0.243,0.248-0.339c0.109-0.095,0.242-0.168,0.398-0.222s0.334-0.081,0.535-0.081
				c0.259,0,0.477,0.037,0.65,0.109c0.176,0.072,0.333,0.195,0.473,0.37h0.341V32.803z M34.695,20.73
				c-0.045,0.204-0.107,0.402-0.186,0.596s-0.167,0.384-0.267,0.572c-0.098,0.188-0.202,0.379-0.31,0.572l-2.524,4.566h-2.356
				l2.066-3.637c-0.12,0.009-0.237,0.007-0.35-0.007s-0.22-0.031-0.323-0.054c-0.382-0.072-0.738-0.203-1.07-0.395
				c-0.332-0.19-0.622-0.426-0.869-0.707c-0.247-0.28-0.44-0.598-0.582-0.952s-0.213-0.731-0.213-1.131
				c0-0.49,0.094-0.943,0.28-1.36c0.186-0.417,0.438-0.778,0.757-1.084c0.318-0.305,0.694-0.544,1.125-0.717
				c0.431-0.172,0.889-0.259,1.373-0.259c0.477,0,0.927,0.087,1.354,0.259c0.427,0.173,0.8,0.41,1.121,0.711
				c0.321,0.301,0.575,0.655,0.762,1.064c0.186,0.408,0.279,0.848,0.279,1.32C34.763,20.311,34.739,20.525,34.695,20.73z"/>
		</g>
		<path fill="#1ABC9B" d="M35.599,12.897l-3.215,4.019c0.072,0.024,0.146,0.047,0.217,0.076c0.427,0.173,0.8,0.41,1.121,0.711
			c0.321,0.301,0.575,0.655,0.762,1.064c0.186,0.408,0.279,0.848,0.279,1.32c0,0.224-0.023,0.438-0.067,0.643
			c-0.045,0.204-0.107,0.402-0.186,0.596s-0.167,0.384-0.267,0.572c-0.098,0.188-0.202,0.379-0.31,0.572l-2.524,4.566h-2.356
			l2.066-3.637c-0.12,0.009-0.237,0.007-0.35-0.007s-0.22-0.031-0.323-0.054c-0.382-0.072-0.738-0.203-1.07-0.395
			c-0.332-0.19-0.622-0.426-0.869-0.707c-0.068-0.077-0.122-0.164-0.183-0.247l-0.843,1.054v0.638h-0.51l-6.475,8.094
			c0.059-0.008,0.117-0.013,0.178-0.013c0.196,0,0.373,0.027,0.529,0.081c0.156,0.053,0.29,0.136,0.399,0.245
			c0.109,0.109,0.192,0.25,0.249,0.422c0.058,0.171,0.087,0.373,0.087,0.607v1.736h0.504v0.603h-1.694v-0.603h0.511v-1.656
			c0-0.277-0.071-0.488-0.21-0.632s-0.341-0.215-0.606-0.215c-0.156,0-0.316,0.037-0.479,0.111
			c-0.012,0.006-0.021,0.013-0.032,0.019l-0.388,0.485v1.888h0.501v0.603h-1.691v-0.603h0.511v-1.039l-1.205,1.506v0.136h-0.108
			l-2.757,3.446c0.243,0.125,0.513,0.202,0.804,0.202h19.128c0.977,0,1.774-0.798,1.774-1.773V14.433
			C36.502,13.774,36.135,13.203,35.599,12.897z M23.411,30.371c0.024-0.054,0.058-0.103,0.098-0.143
			c0.041-0.041,0.09-0.074,0.146-0.099c0.057-0.024,0.116-0.036,0.179-0.036c0.061,0,0.118,0.012,0.174,0.036
			c0.054,0.024,0.103,0.058,0.143,0.099c0.041,0.04,0.074,0.089,0.099,0.143c0.024,0.056,0.037,0.113,0.037,0.174
			c0,0.063-0.013,0.122-0.037,0.179c-0.024,0.056-0.058,0.105-0.099,0.148c-0.04,0.044-0.089,0.077-0.143,0.102
			c-0.056,0.024-0.113,0.037-0.174,0.037c-0.063,0-0.122-0.013-0.179-0.037c-0.056-0.024-0.104-0.058-0.146-0.102
			c-0.04-0.043-0.073-0.093-0.098-0.148c-0.024-0.057-0.037-0.116-0.037-0.179C23.374,30.484,23.387,30.427,23.411,30.371z
			 M24.701,35.457h-1.722v-0.603h0.518v-2.423h-0.525V31.83h1.184v3.024h0.546V35.457z M26.851,35.457h-1.723v-0.603h0.525v-4.243
			h-0.525V30.01h1.176v4.845h0.547V35.457z M27.983,34.009c0.015,0.085,0.036,0.167,0.064,0.243
			c0.087,0.233,0.225,0.409,0.415,0.527s0.405,0.176,0.646,0.176c0.188,0,0.372-0.025,0.551-0.078s0.365-0.135,0.562-0.247
			l0.263,0.445c-0.237,0.163-0.477,0.284-0.718,0.363c-0.24,0.079-0.49,0.119-0.749,0.119c-0.245,0-0.472-0.04-0.681-0.122
			s-0.389-0.203-0.539-0.364s-0.269-0.362-0.354-0.602c-0.086-0.241-0.129-0.521-0.129-0.841c0-0.259,0.037-0.504,0.109-0.733
			s0.18-0.431,0.324-0.603c0.143-0.171,0.321-0.307,0.533-0.407c0.213-0.101,0.46-0.151,0.742-0.151
			c0.273,0,0.502,0.043,0.685,0.125s0.333,0.192,0.448,0.329s0.203,0.292,0.263,0.468c0.06,0.175,0.101,0.353,0.124,0.535
			c0.012,0.089,0.02,0.179,0.023,0.27c0.003,0.091,0.004,0.18,0.004,0.267H27.96C27.96,33.83,27.969,33.924,27.983,34.009z
			 M34.126,32.803h-0.718c0-0.098-0.023-0.182-0.069-0.25c-0.045-0.069-0.104-0.125-0.176-0.168s-0.153-0.074-0.242-0.095
			c-0.089-0.02-0.175-0.029-0.259-0.029c-0.093,0-0.18,0.01-0.257,0.031c-0.078,0.021-0.146,0.052-0.202,0.091
			c-0.056,0.04-0.1,0.088-0.131,0.146s-0.048,0.12-0.048,0.19c0,0.121,0.037,0.218,0.11,0.289c0.074,0.07,0.197,0.137,0.37,0.197
			l0.696,0.245c0.299,0.101,0.518,0.237,0.654,0.409c0.139,0.173,0.207,0.38,0.207,0.62c0,0.161-0.032,0.309-0.097,0.443
			c-0.064,0.134-0.155,0.248-0.273,0.343c-0.117,0.095-0.26,0.168-0.425,0.221c-0.166,0.052-0.35,0.078-0.553,0.078
			c-0.282,0-0.513-0.045-0.69-0.136c-0.177-0.092-0.313-0.212-0.409-0.361h-0.364v-0.602h0.725c0,0.101,0.021,0.186,0.065,0.257
			c0.043,0.071,0.101,0.13,0.171,0.174c0.071,0.044,0.152,0.077,0.241,0.098c0.091,0.021,0.182,0.032,0.275,0.032
			c0.091,0,0.178-0.012,0.263-0.034c0.084-0.021,0.158-0.054,0.223-0.098c0.063-0.043,0.114-0.095,0.151-0.156
			c0.037-0.061,0.057-0.129,0.057-0.206c0-0.116-0.038-0.216-0.114-0.298c-0.075-0.082-0.204-0.154-0.387-0.22l-0.693-0.26
			c-0.281-0.101-0.491-0.228-0.628-0.383c-0.137-0.156-0.205-0.35-0.205-0.583c0-0.154,0.028-0.297,0.086-0.427
			c0.058-0.131,0.14-0.243,0.248-0.339c0.109-0.095,0.242-0.168,0.398-0.222s0.334-0.081,0.535-0.081
			c0.259,0,0.477,0.037,0.65,0.109c0.176,0.072,0.333,0.195,0.473,0.37h0.341V32.803z M35.415,42.86
			c2.444,0,4.434-1.989,4.434-4.435V13.337c0-1.446-0.698-2.728-1.772-3.538l-1.106,1.384c0.669,0.483,1.106,1.268,1.106,2.154
			v25.088c0,1.468-1.193,2.66-2.661,2.66H14.913c-0.554,0-1.068-0.17-1.495-0.461l-1.106,1.384c0.731,0.533,1.628,0.852,2.601,0.852
			h7.031v6.926c0.452,0.059,0.909,0.104,1.369,0.139v-5.4h1.852V50c1.089,0,2.158-0.077,3.21-0.212V42.86H35.415z M29.654,32.547
			c-0.07-0.084-0.159-0.148-0.269-0.195c-0.11-0.047-0.246-0.07-0.406-0.07c-0.152,0-0.285,0.021-0.397,0.064
			c-0.113,0.044-0.21,0.105-0.289,0.186c-0.079,0.081-0.143,0.18-0.19,0.296c-0.048,0.117-0.084,0.247-0.107,0.393h1.881
			c-0.01-0.136-0.031-0.261-0.065-0.375C29.777,32.73,29.725,32.632,29.654,32.547z"/>
		<path fill="#1ABC9B" d="M32.396,19.178c-0.124-0.139-0.281-0.252-0.472-0.34s-0.416-0.131-0.677-0.131
			c-0.188,0-0.373,0.031-0.556,0.094c-0.182,0.063-0.345,0.154-0.491,0.273s-0.264,0.265-0.354,0.438s-0.135,0.37-0.135,0.589
			c0,0.211,0.042,0.402,0.125,0.572c0.083,0.171,0.195,0.317,0.337,0.438c0.141,0.121,0.308,0.215,0.501,0.282
			c0.193,0.067,0.397,0.102,0.612,0.102c0.261,0,0.499-0.046,0.715-0.138c0.216-0.092,0.395-0.23,0.538-0.415
			c0.063-0.116,0.115-0.243,0.158-0.38c0.043-0.137,0.064-0.286,0.064-0.448c0-0.152-0.03-0.312-0.092-0.479
			C32.61,19.469,32.519,19.317,32.396,19.178z"/>
	</g>
</g>
</svg>
