<?xml version="1.0" encoding="utf-8"?>
<!-- Generator: Adobe Illustrator 16.0.0, SVG Export Plug-In . SVG Version: 6.00 Build 0)  -->
<!DOCTYPE svg PUBLIC "-//W3C//DTD SVG 1.1//EN" "http://www.w3.org/Graphics/SVG/1.1/DTD/svg11.dtd">
<svg version="1.1" id="Layer_1" xmlns="http://www.w3.org/2000/svg" xmlns:xlink="http://www.w3.org/1999/xlink" x="0px" y="0px"
	 width="50px" height="50px" viewBox="0 0 50 50" enable-background="new 0 0 50 50" xml:space="preserve">
<g>
	<g>
		<g>
			<g>
				<path fill="#16A085" d="M35.373,15.484c-0.413-0.93-1.34-1.581-2.421-1.581h-2.601l-0.31-2.222
					c-0.103-0.722-0.78-1.312-1.509-1.312h-7.068c-0.729,0-1.408,0.59-1.51,1.313l-0.31,2.22h-2.598c-1.463,0-2.65,1.187-2.65,2.651
					v0.883h21.205v-0.883C35.604,16.172,35.518,15.812,35.373,15.484z M21.431,13.903l0.248-1.767h6.641l0.248,1.767H21.431z"/>
				<path fill="#16A085" d="M33.393,19.204H16.607c-0.973,0-1.696,0.792-1.608,1.76l1.447,15.917
					c0.049,0.532,0.338,1.008,0.747,1.33c0.333,0.264,0.745,0.432,1.181,0.432h13.25c0.974,0,1.84-0.793,1.928-1.762L35,20.964
					C35.088,19.996,34.363,19.204,33.393,19.204z M21.69,22.938c0.117-0.203,0.276-0.366,0.468-0.5
					c0.281-0.195,0.596-0.301,0.934-0.336c0.116-0.011,0.233-0.001,0.352-0.001c1.222,0.003,2.445,0.007,3.666,0.01
					c0.144,0,0.279,0.032,0.412,0.078c0.291,0.099,0.541,0.258,0.75,0.484c0.104,0.112,0.182,0.243,0.262,0.374
					c0.091,0.151,0.223,0.368,0.339,0.564c0.146,0.239,0.269,0.444,0.269,0.444s0.717-0.384,1.065-0.588
					c0.002,0.002,0.006,0.007,0.006,0.007l-1.603,2.817c0,0-0.941,0.008-1.896,0.016c-0.489,0.006-0.981,0.01-1.349,0.012
					c-0.001-0.004-0.003-0.012-0.003-0.012l0.977-0.578c0,0-0.698-1.194-1.036-1.764c-0.023-0.04-0.055-0.078-0.091-0.105
					c-0.094-0.071-0.227-0.04-0.289,0.066c-0.165,0.282-1.688,2.947-1.788,3.117c-0.005,0.009-0.02,0.029-0.02,0.029
					s-1.896-1.09-2.843-1.632C20.282,25.422,21.61,23.076,21.69,22.938z M21.804,34.54c-0.234,0.001-0.455-0.058-0.667-0.156
					c-0.215-0.101-0.391-0.247-0.551-0.415c-0.07-0.072-0.146-0.141-0.206-0.225c-0.068-0.096-0.119-0.202-0.178-0.305
					c-0.607-1.06-1.215-2.121-1.824-3.181c-0.071-0.124-0.11-0.258-0.139-0.396c-0.061-0.301-0.047-0.598,0.044-0.891
					c0.046-0.146,0.12-0.279,0.193-0.412c0.191-0.345,0.57-1.031,0.57-1.031s-0.691-0.43-1.042-0.629
					c0.001-0.004,0.003-0.01,0.003-0.01l3.24-0.021c0,0,1.098,1.863,1.648,2.797c-0.003,0.003-0.011,0.009-0.011,0.009l-0.991-0.557
					c0,0-0.683,1.2-1.007,1.778c-0.022,0.039-0.039,0.086-0.044,0.131c-0.014,0.117,0.078,0.218,0.201,0.218
					c0.156,0.001,0.932-0.003,1.724-0.005c0.874-0.004,1.766-0.008,1.871-0.006c0.01,0,0.033,0.002,0.033,0.002
					s0.005,2.188,0.009,3.277C24.659,34.518,21.964,34.54,21.804,34.54z M31.811,30.268c-0.047,0.104-0.113,0.203-0.172,0.305
					c-0.617,1.057-1.229,2.113-1.845,3.17c-0.071,0.124-0.168,0.226-0.272,0.318c-0.229,0.203-0.492,0.34-0.793,0.405
					c-0.15,0.034-0.303,0.037-0.453,0.039c-0.395,0.007-1.178,0.022-1.178,0.022s-0.027,0.813-0.023,1.218
					c-0.006,0.001-0.012,0.003-0.012,0.003l-1.638-2.797c0,0,1.065-1.883,1.597-2.825c0.006,0.001,0.016,0.004,0.016,0.004
					l0.011,1.138c0,0,1.384-0.01,2.045-0.018c0.046,0,0.095-0.01,0.14-0.027c0.106-0.046,0.146-0.176,0.086-0.281
					c-0.164-0.283-1.707-2.937-1.807-3.106c-0.006-0.009-0.017-0.03-0.017-0.03s1.892-1.1,2.836-1.647
					c0.011,0.019,1.379,2.342,1.459,2.479c0.117,0.202,0.178,0.424,0.198,0.656C32.018,29.632,31.951,29.956,31.811,30.268z"/>
			</g>
		</g>
	</g>
	<g>
		<g>
			<g>
				<path fill="#1ABC9B" d="M33.811,17.437h1.793v-0.883c0-0.382-0.086-0.743-0.229-1.07L33.811,17.437z"/>
				<path fill="#1ABC9B" d="M29.141,24.056c0,0,0.717-0.384,1.064-0.588c0.002,0.002,0.006,0.007,0.006,0.007l-1.602,2.817
					c0,0-0.942,0.008-1.896,0.017l-3.946,4.934c0.874-0.003,1.766-0.008,1.871-0.006c0.01,0,0.033,0.003,0.033,0.003
					s0.005,2.187,0.009,3.276c-0.021,0.002-2.717,0.024-2.877,0.024c-0.234,0.001-0.455-0.058-0.667-0.156
					c-0.215-0.101-0.391-0.247-0.551-0.415l-3.393,4.242c0.333,0.264,0.745,0.432,1.181,0.432h13.25c0.973,0,1.84-0.793,1.928-1.762
					l1.448-15.917c0.087-0.968-0.638-1.76-1.608-1.76h-0.996l-3.524,4.407C29.016,23.85,29.141,24.056,29.141,24.056z
					 M31.789,28.636c0.117,0.202,0.178,0.423,0.199,0.656c0.027,0.34-0.037,0.664-0.178,0.976c-0.047,0.104-0.115,0.203-0.174,0.305
					c-0.615,1.057-1.229,2.113-1.844,3.17c-0.07,0.124-0.168,0.226-0.271,0.318c-0.23,0.203-0.492,0.34-0.793,0.405
					c-0.151,0.034-0.304,0.037-0.455,0.039c-0.394,0.007-1.178,0.022-1.178,0.022s-0.025,0.813-0.022,1.218
					c-0.005,0.001-0.011,0.003-0.011,0.003l-1.639-2.797c0,0,1.064-1.883,1.598-2.825c0.006,0.001,0.015,0.004,0.015,0.004
					l0.011,1.138c0,0,1.385-0.01,2.045-0.018c0.045,0,0.096-0.01,0.139-0.027c0.107-0.046,0.146-0.176,0.086-0.281
					c-0.164-0.283-1.707-2.937-1.807-3.106c-0.005-0.009-0.016-0.03-0.016-0.03s1.893-1.1,2.836-1.647
					C30.341,26.174,31.709,28.497,31.789,28.636z"/>
			</g>
		</g>
	</g>
</g>
</svg>
