<?xml version="1.0" encoding="utf-8"?>
<!-- Generator: Adobe Illustrator 16.0.0, SVG Export Plug-In . SVG Version: 6.00 Build 0)  -->
<!DOCTYPE svg PUBLIC "-//W3C//DTD SVG 1.1//EN" "http://www.w3.org/Graphics/SVG/1.1/DTD/svg11.dtd">
<svg version="1.1" id="Layer_1" xmlns="http://www.w3.org/2000/svg" xmlns:xlink="http://www.w3.org/1999/xlink" x="0px" y="0px"
	 width="50px" height="50px" viewBox="0 0 50 50" enable-background="new 0 0 50 50" xml:space="preserve">
<g>
	<path fill="#27AE60" d="M9.685,15.775L25.89,31.979c-3.661,3.661-9.598,3.661-13.259,0S9.685,24.333,9.685,15.775z"/>
	<path fill="#2ECC71" d="M9.685,15.775L25.89,31.979c3.661-3.661,3.661-9.597,0-13.258C22.229,15.06,18.244,15.775,9.685,15.775z"/>
</g>
<g>
	<path fill="#3398DB" d="M40.403,15.775L24.199,31.979c3.661,3.661,9.597,3.661,13.259,0C41.118,28.318,40.403,24.333,40.403,15.775
		z"/>
	<path fill="#2880B9" d="M40.403,15.775L24.199,31.979c-3.661-3.661-3.661-9.597,0-13.258C27.86,15.06,31.845,15.775,40.403,15.775z
		"/>
</g>
</svg>
