<?xml version="1.0" encoding="utf-8"?>
<!-- Generator: Adobe Illustrator 16.0.0, SVG Export Plug-In . SVG Version: 6.00 Build 0)  -->
<!DOCTYPE svg PUBLIC "-//W3C//DTD SVG 1.1//EN" "http://www.w3.org/Graphics/SVG/1.1/DTD/svg11.dtd">
<svg version="1.1" id="Layer_1" xmlns="http://www.w3.org/2000/svg" xmlns:xlink="http://www.w3.org/1999/xlink" x="0px" y="0px"
	 width="50px" height="50px" viewBox="0 0 50 50" enable-background="new 0 0 50 50" xml:space="preserve">
<g>
	<path fill="#2C3E50" d="M11.879,17.338L6.655,22.34l-3.223-2.446l-3.328,2.879C0.039,23.507,0,24.249,0,25
		c0,5.127,1.546,9.893,4.194,13.859l14.797-14.631L11.879,17.338z"/>
	<path fill="#2C3E50" d="M20.826,24.617L5.982,41.218c0.872,1.021,1.823,1.971,2.846,2.84l13.221-19.44H20.826z"/>
	<path fill="#2C3E50" d="M43.344,22.34l-5.223-5.002l-7.113,6.891l14.798,14.631C48.453,34.893,50,30.127,50,25
		c0-0.751-0.039-1.493-0.104-2.227l-3.328-2.879L43.344,22.34z"/>
	<path fill="#2C3E50" d="M27.951,24.617l13.221,19.44c1.023-0.869,1.974-1.819,2.846-2.84L29.174,24.617H27.951z"/>
	<polygon fill="#2C3E50" points="23.229,39.288 22.826,44.957 27.272,44.957 26.745,39.288 	"/>
	<polygon fill="#2C3E50" points="26.173,32.453 23.667,32.453 23.525,35.12 26.359,35.12 	"/>
	<polygon fill="#2C3E50" points="25.857,28.045 23.908,28.045 23.837,29.675 25.95,29.675 	"/>
	<polygon fill="#2C3E50" points="25.608,24.617 24.099,24.617 23.993,26.111 25.746,26.111 	"/>
</g>
</svg>
