<?xml version="1.0" encoding="utf-8"?>
<!-- Generator: Adobe Illustrator 16.0.0, SVG Export Plug-In . SVG Version: 6.00 Build 0)  -->
<!DOCTYPE svg PUBLIC "-//W3C//DTD SVG 1.1//EN" "http://www.w3.org/Graphics/SVG/1.1/DTD/svg11.dtd">
<svg version="1.1" id="Layer_1" xmlns="http://www.w3.org/2000/svg" xmlns:xlink="http://www.w3.org/1999/xlink" x="0px" y="0px"
	 width="50px" height="50px" viewBox="0 0 50 50" enable-background="new 0 0 50 50" xml:space="preserve">
<path fill-rule="evenodd" clip-rule="evenodd" fill="#2C3E50" d="M32.169,30.952c0,0,0-2.111,0.009-3.012
	c0.001-0.152,0.029-0.313,0.082-0.455c0.781-2.093,1.569-4.184,2.355-6.274c0.055-0.144,0.165-0.453,0.165-0.453
	s-2.522-0.039-2.584-0.05l-0.022-1.436c0,0-0.01-1.024,0.003-1.536c0.004-0.173,0.036-0.354,0.097-0.517
	c0.811-2.17,1.627-4.337,2.441-6.506c0.02-0.053,0.022-0.113,0.039-0.204h-2.587V9.357c-0.106-0.005-0.179-0.011-0.251-0.011
	c-0.596,0.001-1.191-0.009-1.786,0.012c-0.281,0.01-0.495-0.071-0.704-0.255c-0.604-0.534-1.319-0.89-2.077-1.132
	c-1.128-0.361-2.291-0.455-3.467-0.28c-1.266,0.188-2.418,0.644-3.401,1.479c-0.155,0.132-0.308,0.189-0.507,0.187
	c-0.605-0.008-1.21-0.005-1.815-0.004c-0.101,0-0.201,0.011-0.332,0.019v1.137h-2.603c0.048,0.153,0.077,0.271,0.12,0.383
	c0.793,2.109,1.59,4.217,2.377,6.328c0.064,0.171,0.098,0.364,0.1,0.547c0.01,0.899,0.005,1.797,0.004,2.697
	c0,0.08-0.009,0.161-0.017,0.275h-2.593c0.054,0.161,0.088,0.276,0.131,0.389c0.797,2.119,1.598,4.238,2.392,6.359
	c0.054,0.144,0.083,0.304,0.084,0.456c0.008,0.92-0.011,2.918-0.019,3.014l-2.567,0.02c0,0,0.985,2.713,1.457,3.963
	c0.342,0.908,0.694,1.813,1.03,2.725c0.063,0.172,0.095,0.364,0.098,0.548c0.011,0.721,0.004,1.442,0.005,2.164
	c0,0.11,0.011,0.221,0.019,0.361h4.033v0.854c0.5,0.065,6.006,0.042,6.261-0.032v-0.824c0.123,0,4.036-0.007,4.036-0.007l2.609-9.77
	L32.169,30.952z M25.026,11.426c1.954-0.03,3.87,1.603,3.841,3.917c-0.027,2.163-1.813,3.874-3.977,3.816
	c-2.124-0.057-3.8-1.829-3.764-3.937C21.162,13.105,22.912,11.398,25.026,11.426z M24.984,38.93
	c-1.945-0.009-3.555-1.62-3.506-3.536c-0.058-1.812,1.489-3.523,3.517-3.526c1.96-0.003,3.547,1.644,3.532,3.553
	C28.515,37.271,26.992,38.938,24.984,38.93z M24.979,28.902c-2.095,0.02-3.838-1.713-3.853-3.837
	c-0.015-2.075,1.665-3.903,3.903-3.894c2.121,0.01,3.861,1.773,3.84,3.896C28.848,27.294,27.002,28.948,24.979,28.902z"/>
</svg>
