<?xml version="1.0" encoding="utf-8"?>
<!-- Generator: Adobe Illustrator 16.0.0, SVG Export Plug-In . SVG Version: 6.00 Build 0)  -->
<!DOCTYPE svg PUBLIC "-//W3C//DTD SVG 1.1//EN" "http://www.w3.org/Graphics/SVG/1.1/DTD/svg11.dtd">
<svg version="1.1" id="Layer_1" xmlns="http://www.w3.org/2000/svg" xmlns:xlink="http://www.w3.org/1999/xlink" x="0px" y="0px"
	 width="50px" height="50px" viewBox="0 0 50 50" enable-background="new 0 0 50 50" xml:space="preserve">
<path fill="#2ECC71" d="M25,0C11.193,0,0,11.193,0,25c0,13.807,11.193,25,25,25c13.809,0,25-11.193,25-25C50,11.193,38.809,0,25,0z
	 M25,47.462C12.595,47.462,2.539,37.404,2.539,25C2.539,12.595,12.595,2.539,25,2.539c12.404,0,22.462,10.056,22.462,22.461
	C47.462,37.404,37.404,47.462,25,47.462z"/>
<g>
	<path fill="#27AE60" d="M29.961,26.926c-0.283-1.878-1.76-2.597-3.232-3.297c-0.563-0.267-1.147-0.481-1.728-0.712
		c-0.174-0.07-0.348-0.14-0.521-0.214c-0.208-0.092-0.402-0.24-0.567-0.398c-0.443-0.424-0.424-1.029,0.02-1.456
		c0.301-0.286,0.671-0.393,1.068-0.428c0.01,0,0.02-0.002,0.027-0.003c1.048-0.085,2.062,0.057,3.041,0.448
		c0.209,0.084,0.418,0.166,0.673,0.266c0.229-0.869,0.45-1.693,0.676-2.546c-1.041-0.531-2.127-0.701-3.317-0.748
		c0-0.684,0-1.324,0-1.944c-0.382,0-0.742,0-1.098,0c-0.365,0-0.729,0-1.106,0c0,0.714,0,1.385,0,2.048
		c-0.239,0.07-0.422,0.116-0.601,0.177c-0.804,0.272-1.577,0.603-2.168,1.244c-0.686,0.747-0.999,1.627-1.02,2.647
		c-0.02,0.918,0.327,1.727,0.877,2.356c0.662,0.759,1.598,1.213,2.56,1.552c0.487,0.175,0.981,0.335,1.458,0.531
		c0.038,0.017,0.076,0.029,0.115,0.046c0.324,0.14,0.638,0.327,0.919,0.542c0.596,0.464,0.705,1.479-0.037,1.949
		c-0.24,0.152-0.529,0.257-0.81,0.318c-0.063,0.014-0.125,0.021-0.188,0.032c-0.886,0.153-1.76,0.011-2.612-0.245
		c-0.578-0.172-1.136-0.412-1.752-0.643c-0.228,0.883-0.448,1.752-0.672,2.625c1.224,0.671,2.513,0.852,3.849,1.027
		c0,0.699,0,1.347,0,2.004c0.407,0,0.799,0,1.188,0c0.36,0,0.721,0,1.094,0c0-0.769,0-1.481,0-2.162
		c0.086-0.049,0.118-0.074,0.155-0.086c0.164-0.045,0.328-0.082,0.49-0.129c1.313-0.389,2.368-1.094,2.946-2.389
		c0.136-0.298,0.234-0.613,0.349-0.921c0-0.466,0-0.931,0-1.396C30.01,26.992,29.967,26.963,29.961,26.926z"/>
	<path fill="#2ECC71" d="M25.028,20.418c1.048-0.085,2.062,0.057,3.041,0.448c0.209,0.084,0.418,0.166,0.673,0.266
		c0.229-0.869,0.45-1.693,0.676-2.546c-1.041-0.531-2.127-0.701-3.317-0.748c0-0.684,0-1.324,0-1.944c-0.382,0-0.742,0-1.098,0
		v4.527C25.01,20.421,25.02,20.419,25.028,20.418z"/>
	<path fill="#2ECC71" d="M29.961,26.926c-0.283-1.878-1.76-2.597-3.232-3.297c-0.563-0.267-1.147-0.481-1.728-0.712v3.532
		c0.038,0.017,0.076,0.029,0.115,0.046c0.324,0.14,0.638,0.327,0.919,0.542c0.596,0.464,0.705,1.479-0.037,1.949
		c-0.24,0.152-0.529,0.257-0.81,0.318c-0.063,0.014-0.125,0.021-0.188,0.032v4.769c0.36,0,0.721,0,1.093,0c0-0.768,0-1.48,0-2.162
		c0.087-0.049,0.119-0.073,0.156-0.086c0.164-0.045,0.328-0.082,0.489-0.129c1.313-0.388,2.369-1.093,2.947-2.388
		c0.135-0.298,0.234-0.612,0.349-0.921c0-0.466,0-0.931,0-1.396C30.01,26.992,29.967,26.963,29.961,26.926z"/>
</g>
</svg>
