<?xml version="1.0" encoding="utf-8"?>
<!-- Generator: Adobe Illustrator 16.0.0, SVG Export Plug-In . SVG Version: 6.00 Build 0)  -->
<!DOCTYPE svg PUBLIC "-//W3C//DTD SVG 1.1//EN" "http://www.w3.org/Graphics/SVG/1.1/DTD/svg11.dtd">
<svg version="1.1" id="Layer_1" xmlns="http://www.w3.org/2000/svg" xmlns:xlink="http://www.w3.org/1999/xlink" x="0px" y="0px"
	 width="50px" height="50px" viewBox="0 0 50 50" enable-background="new 0 0 50 50" xml:space="preserve">
<path fill="#33485D" d="M25,0C11.193,0,0,11.192,0,25c0,13.807,11.193,25,25,25c13.808,0,25-11.193,25-25C50,11.192,38.808,0,25,0z
	 M25,47.462C12.596,47.462,2.539,37.404,2.539,25C2.539,12.594,12.596,2.538,25,2.538c12.406,0,22.463,10.056,22.463,22.462
	C47.463,37.404,37.406,47.462,25,47.462z"/>
<path fill="#2C3E50" d="M34.17,18.45v-1.31L25,19.76l-9.17-2.619v1.31l6.549,2.62v5.239l-2.62,9.17h1.31L25,26.31l3.93,9.17h1.311
	l-2.621-9.17V21.07L34.17,18.45z M23.035,16.485c0,1.085,0.879,1.965,1.965,1.965c1.086,0,1.965-0.88,1.965-1.965
	c0-1.086-0.879-1.965-1.965-1.965C23.914,14.521,23.035,15.399,23.035,16.485z"/>
</svg>
