<?xml version="1.0" encoding="utf-8"?>
<!-- Generator: Adobe Illustrator 16.0.0, SVG Export Plug-In . SVG Version: 6.00 Build 0)  -->
<!DOCTYPE svg PUBLIC "-//W3C//DTD SVG 1.1//EN" "http://www.w3.org/Graphics/SVG/1.1/DTD/svg11.dtd">
<svg version="1.1" id="Layer_1" xmlns="http://www.w3.org/2000/svg" xmlns:xlink="http://www.w3.org/1999/xlink" x="0px" y="0px"
	 width="50px" height="50px" viewBox="0 0 50 50" enable-background="new 0 0 50 50" xml:space="preserve">
<g>
	<g>
		<g>
			<path fill="#2C3E50" d="M35.251,8.903H14.749c-2.445,0-4.435,1.989-4.435,4.434v25.088c0,2.445,1.989,4.435,4.435,4.435h20.502
				c2.445,0,4.435-1.989,4.435-4.435V13.337C39.686,10.893,37.696,8.903,35.251,8.903z M37.912,38.426
				c0,1.468-1.193,2.66-2.661,2.66H14.749c-1.468,0-2.66-1.192-2.66-2.66V13.337c0-1.467,1.192-2.66,2.66-2.66h20.502
				c1.468,0,2.661,1.193,2.661,2.66V38.426z"/>
			<path fill="#2C3E50" d="M34.564,12.659h-19.13c-0.976,0-1.773,0.798-1.773,1.774v22.899c0,0.976,0.798,1.773,1.773,1.773h19.13
				c0.977,0,1.773-0.798,1.773-1.773V14.433C36.338,13.457,35.541,12.659,34.564,12.659z M25.567,34.961
				c-0.085,0.193-0.198,0.365-0.339,0.514c-0.141,0.149-0.307,0.266-0.495,0.351c-0.189,0.084-0.389,0.127-0.598,0.127
				c-0.218,0-0.424-0.043-0.617-0.127c-0.193-0.085-0.36-0.201-0.501-0.351c-0.142-0.148-0.254-0.32-0.339-0.514
				c-0.084-0.193-0.126-0.398-0.126-0.616c0-0.209,0.042-0.409,0.126-0.598c0.085-0.189,0.197-0.354,0.339-0.496
				c0.141-0.141,0.308-0.254,0.501-0.339c0.193-0.084,0.399-0.126,0.617-0.126c0.209,0,0.408,0.042,0.598,0.126
				c0.188,0.085,0.354,0.198,0.495,0.339c0.141,0.142,0.254,0.307,0.339,0.496c0.084,0.188,0.126,0.389,0.126,0.598
				C25.693,34.563,25.651,34.768,25.567,34.961z M29.863,23.369c-0.42,0.692-1.044,1.328-1.873,1.909
				c-0.379,0.266-0.813,0.608-1.299,1.026c-0.488,0.419-0.834,0.937-1.04,1.553c-0.205,0.616-0.324,1.132-0.355,1.547
				c-0.032,0.415-0.049,0.929-0.049,1.541h-2.176c0-0.838,0.031-1.549,0.092-2.133s0.175-1.12,0.344-1.607
				c0.17-0.487,0.402-0.912,0.701-1.274c0.298-0.363,0.685-0.745,1.16-1.148c0.427-0.362,0.815-0.676,1.166-0.942
				c0.351-0.266,0.649-0.525,0.899-0.779s0.443-0.527,0.581-0.821c0.137-0.294,0.205-0.65,0.205-1.07
				c0-0.362-0.073-0.713-0.218-1.051c-0.146-0.338-0.341-0.638-0.586-0.9c-0.246-0.262-0.536-0.473-0.87-0.634
				c-0.335-0.161-0.69-0.242-1.069-0.242c-0.652,0-1.196,0.112-1.631,0.338c-0.436,0.226-0.785,0.498-1.052,0.815
				c-0.266,0.318-0.455,0.654-0.568,1.009c-0.113,0.355-0.169,0.657-0.169,0.906l-2.126-0.145c0.04-0.676,0.202-1.316,0.489-1.92
				c0.285-0.604,0.67-1.134,1.153-1.59c0.483-0.455,1.056-0.817,1.716-1.087c0.661-0.27,1.39-0.405,2.188-0.405
				c0.806,0,1.521,0.133,2.145,0.399s1.15,0.621,1.577,1.063c0.427,0.444,0.749,0.957,0.966,1.541
				c0.218,0.584,0.327,1.194,0.327,1.831C30.491,21.919,30.281,22.677,29.863,23.369z"/>
		</g>
		<g>
			<path fill="#34485E" d="M35.251,42.86c2.445,0,4.435-1.989,4.435-4.435V13.337c0-1.475-0.727-2.78-1.838-3.586l-1.106,1.383
				c0.706,0.479,1.171,1.288,1.171,2.203v25.088c0,1.468-1.193,2.66-2.661,2.66H14.749c-0.583,0-1.12-0.19-1.56-0.509l-1.106,1.384
				c0.743,0.562,1.665,0.899,2.666,0.899h7.031v6.926c0.452,0.059,0.908,0.104,1.368,0.139v-5.4H25V50
				c1.089,0,2.158-0.077,3.21-0.212V42.86H35.251z"/>
			<path fill="#34485E" d="M35.362,12.858l-5.177,6.473c0.202,0.565,0.306,1.153,0.306,1.767c0,0.822-0.21,1.58-0.628,2.272
				c-0.42,0.692-1.044,1.328-1.873,1.909c-0.379,0.266-0.813,0.608-1.299,1.026c-0.488,0.419-0.834,0.937-1.04,1.553
				c-0.205,0.616-0.324,1.132-0.355,1.547c-0.032,0.415-0.049,0.929-0.049,1.541h-2.176c0-0.838,0.031-1.549,0.092-2.133
				c0.031-0.309,0.081-0.602,0.143-0.883L14.56,38.864c0.259,0.149,0.556,0.241,0.875,0.241h19.13c0.977,0,1.773-0.798,1.773-1.773
				V14.433C36.338,13.745,35.938,13.152,35.362,12.858z M25.567,34.961c-0.085,0.193-0.198,0.365-0.339,0.514
				c-0.141,0.149-0.307,0.266-0.495,0.351c-0.189,0.084-0.389,0.127-0.598,0.127c-0.218,0-0.424-0.043-0.617-0.127
				c-0.193-0.085-0.36-0.201-0.501-0.351c-0.142-0.148-0.254-0.32-0.339-0.514c-0.084-0.193-0.126-0.398-0.126-0.616
				c0-0.209,0.042-0.409,0.126-0.598c0.085-0.189,0.197-0.354,0.339-0.496c0.141-0.141,0.308-0.254,0.501-0.339
				c0.193-0.084,0.399-0.126,0.617-0.126c0.209,0,0.408,0.042,0.598,0.126c0.188,0.085,0.354,0.198,0.495,0.339
				c0.141,0.142,0.254,0.307,0.339,0.496c0.084,0.188,0.126,0.389,0.126,0.598C25.693,34.563,25.651,34.768,25.567,34.961z"/>
		</g>
	</g>
</g>
</svg>
