<?xml version="1.0" encoding="utf-8"?>
<!-- Generator: Adobe Illustrator 16.0.0, SVG Export Plug-In . SVG Version: 6.00 Build 0)  -->
<!DOCTYPE svg PUBLIC "-//W3C//DTD SVG 1.1//EN" "http://www.w3.org/Graphics/SVG/1.1/DTD/svg11.dtd">
<svg version="1.1" id="Layer_1" xmlns="http://www.w3.org/2000/svg" xmlns:xlink="http://www.w3.org/1999/xlink" x="0px" y="0px"
	 width="50px" height="50px" viewBox="0 0 50 50" enable-background="new 0 0 50 50" xml:space="preserve">
<g>
	<path fill="#FFFFFF" d="M15.511,28.186c-1.65,0-2.986,1.337-2.986,2.986c0,1.65,1.336,2.987,2.986,2.987
		c1.651,0,2.988-1.337,2.988-2.987C18.499,29.522,17.162,28.186,15.511,28.186z M15.511,32.892c-0.949,0-1.719-0.77-1.719-1.72
		c0-0.949,0.77-1.72,1.719-1.72c0.951,0,1.72,0.771,1.72,1.72C17.231,32.122,16.462,32.892,15.511,32.892z"/>
	<path fill="#FFFFFF" d="M36.423,28.186c-1.649,0-2.986,1.337-2.986,2.986c0,1.65,1.337,2.987,2.986,2.987
		c1.65,0,2.986-1.337,2.986-2.987C39.409,29.522,38.073,28.186,36.423,28.186z M36.423,32.892c-0.949,0-1.72-0.77-1.72-1.72
		c0-0.949,0.771-1.72,1.72-1.72c0.95,0,1.719,0.771,1.719,1.72C38.142,32.122,37.373,32.892,36.423,32.892z"/>
	<path fill="#FFFFFF" d="M31.722,22.269c0,0-2.67-4.934-3.032-5.567c-0.363-0.634-0.905-0.86-3.439-0.86c-2.535,0-11.316,0-12.855,0
		c-3.44,0-3.622,8.194-3.622,8.194s-0.271,6.517,2.173,6.517c0.13,0,0.273,0,0.424,0c0.299-2.021,2.037-3.571,4.141-3.571
		c2.105,0,3.841,1.551,4.142,3.571c0.031,0,0.051,0,0.051,0s7.017,0,12.578,0c0.3-2.021,2.037-3.571,4.142-3.571
		c2.019,0,3.701,1.425,4.101,3.324c1.186-0.359,2.378-1.183,2.378-2.921c0-0.543,0-0.905,0-1.675
		C42.901,22.541,31.722,22.269,31.722,22.269z M16.333,18.467c0,2.626-1.381,3.849-1.925,3.849c-0.542,0-4.05,0-4.05,0
		c0-5.25,1.833-4.8,2.167-4.8s2.542,0,3.242,0C16.468,17.516,16.333,18.467,16.333,18.467z M23.348,22.314c0,0-4.496,0-5.182,0
		c-0.685,0-0.747,0.136-0.747-2.398c0-2.535,0.543-2.4,0.543-2.4h5.385V22.314z M29.052,22.315c-0.498,0-4.571,0-4.571,0v-4.8
		c0,0,2.67,0,3.303,0c0.635,0,1.526,2.4,2.264,3.893C30.586,22.501,29.55,22.315,29.052,22.315z"/>
</g>
</svg>
