<?xml version="1.0" encoding="utf-8"?>
<!-- Generator: Adobe Illustrator 16.0.0, SVG Export Plug-In . SVG Version: 6.00 Build 0)  -->
<!DOCTYPE svg PUBLIC "-//W3C//DTD SVG 1.1//EN" "http://www.w3.org/Graphics/SVG/1.1/DTD/svg11.dtd">
<svg version="1.1" id="Layer_1" xmlns="http://www.w3.org/2000/svg" xmlns:xlink="http://www.w3.org/1999/xlink" x="0px" y="0px"
	 width="50px" height="50px" viewBox="0 0 50 50" enable-background="new 0 0 50 50" xml:space="preserve">
<g>
	<path fill="#C0392A" d="M22.301,21.455c0,0-5.287,0-6.048,0c-0.539,0,1.543-2.955,1.735-3.163c0.561-0.609,1.174-1.186,2.042-1.189
		c0.233-0.001,2.353-0.164,2.353,0.242L22.301,21.455z M29.019,21.464c-1.887,0.008-3.774-0.009-5.66-0.009
		c0.018-0.857,0.036-1.715,0.053-2.573c0.009-0.457,0.019-0.914,0.026-1.371c0.008-0.456,0.665-0.389,1.014-0.388
		c1.686,0.004,3.402,0.936,4.812,1.854c0.23-0.486,0.654-0.77,1.103-1.009c-1.68-1.106-3.586-1.978-5.569-1.962
		c-0.934-0.007-1.867-0.014-2.8-0.02c-1.183-0.007-2.875-0.318-3.965,0.213c-1.9,0.927-3.46,2.85-4.781,4.459
		c-0.919,0-2.628-0.361-3.201,0.576c-0.429,0.702-0.21,1.549-0.416,2.309c-0.162,0.6-0.573,1.022-0.858,1.555
		c-0.372,0.695-0.302,2.189,0.118,2.815c0.773,1.151,2.774,0.741,3.92,0.741c0,0,0-0.001,0-0.001
		c0.998-4.142,7.205-3.759,7.694,0.465h5.405C26.771,26.605,29.015,21.578,29.019,21.464z"/>
	<path fill="#C0392A" d="M16.618,26.779c-1.542,0-2.791,1.249-2.791,2.791s1.249,2.791,2.791,2.791s2.791-1.249,2.791-2.791
		S18.16,26.779,16.618,26.779z M16.618,31.178c-0.888,0-1.606-0.72-1.606-1.607s0.719-1.606,1.606-1.606s1.607,0.719,1.607,1.606
		S17.506,31.178,16.618,31.178z"/>
</g>
<g>
	<path fill="#E74C3B" d="M34.229,21.122c-1.676-1.597-3.109-2.695-4.324-3.452l-0.908,1.135c0.887,0.55,1.619,1.11,2.098,1.472
		c1.231,0.929,0.628,1.165-0.249,1.178c-0.41,0.006-2.209,0.005-3.971,0.004l-6.126,7.657c1.599,0,6.181,0,10.596,0
		c0.226-1.949,1.879-3.463,3.89-3.463s3.664,1.514,3.89,3.463c0.888,0,1.528,0,1.788,0c1.776,0,2.157-1.479,2.157-3.638
		C43.069,20.869,38.078,21.714,34.229,21.122z"/>
	<path fill="#E74C3B" d="M35.234,26.779c-1.542,0-2.791,1.249-2.791,2.791s1.249,2.791,2.791,2.791s2.791-1.249,2.791-2.791
		S36.776,26.779,35.234,26.779z M35.234,31.178c-0.888,0-1.606-0.72-1.606-1.607s0.719-1.606,1.606-1.606s1.607,0.719,1.607,1.606
		S36.122,31.178,35.234,31.178z"/>
</g>
</svg>
