<?xml version="1.0" encoding="utf-8"?>
<!-- Generator: Adobe Illustrator 16.0.0, SVG Export Plug-In . SVG Version: 6.00 Build 0)  -->
<!DOCTYPE svg PUBLIC "-//W3C//DTD SVG 1.1//EN" "http://www.w3.org/Graphics/SVG/1.1/DTD/svg11.dtd">
<svg version="1.1" id="Layer_1" xmlns="http://www.w3.org/2000/svg" xmlns:xlink="http://www.w3.org/1999/xlink" x="0px" y="0px"
	 width="50px" height="50px" viewBox="0 0 50 50" enable-background="new 0 0 50 50" xml:space="preserve">
<g>
	<path fill="#2880B9" d="M17.754,31.328c0-0.945,0.768-1.712,1.713-1.712c0.399,0,0.764,0.143,1.055,0.373l2.809-3.51
		c-1.628,0.148-2.277,0.479-2.77,0.479c-0.634,0,0.508,0-1.606,0s-1.607-2.156-1.607-3.425s0-1.733,0-1.733
		c0-8.457,3.468-8.625,7.653-8.625c2.864,0,5.392,0.081,6.702,2.84l1.972-2.464c-0.082-0.122-0.156-0.247-0.218-0.376
		c-1.431-2.99-5.833-2.507-8.456-2.507s-7.025-0.483-8.456,2.507c-0.465,0.972-1.522,1.734-2.917,2.41c0,0-1.607,0.253-1.607,2.917
		c0,0.549,0,0.888,0,1.564c0,0.676,0.043,1.353,0.635,1.353s1.226,0.085,1.226-1.1c0-1.437,0-2.24,0-2.833
		c0-0.592,0.847-0.846,1.354-1.142c-0.212,1.142-0.846,6.765-0.888,9.386c-0.043,2.621-0.043,4.271-0.043,5.665
		c0,1.204-0.136,3.44,1.865,4.034l2.224-2.779C18.006,32.337,17.754,31.864,17.754,31.328z"/>
	<g>
		<g>
			<path fill="#2880B9" d="M33.921,36.597c-0.342,0-0.954,0.148-1.585,0.148c-0.617,0-1.253-0.148-1.671-0.148
				c-0.763,0-0.916,0.935,0.609,1.29c0.503,0.117,1.189,0.19,2.097,0.19C34.471,38.077,34.598,36.597,33.921,36.597z"/>
			<path fill="#2880B9" d="M19.335,36.597c-0.418,0-1.054,0.148-1.671,0.148c-0.631,0-1.243-0.148-1.585-0.148
				c-0.677,0-0.55,1.48,0.55,1.48c0.907,0,1.594-0.073,2.097-0.19C20.25,37.531,20.098,36.597,19.335,36.597z"/>
			<g>
				<g>
					<path fill="#3398DB" d="M36.373,15.584c-1.21-0.586-2.164-1.238-2.699-2.034l-1.972,2.464c0.604,1.273,0.951,3.115,0.951,5.785
						c0,0,0,0.465,0,1.733s0.507,3.425-1.607,3.425s-0.973,0-1.606,0s-1.522-0.55-4.439-0.55c-0.653,0-1.2,0.028-1.67,0.071
						l-2.809,3.51c0.397,0.313,0.657,0.794,0.657,1.339c0,0.946-0.767,1.712-1.712,1.712c-0.409,0-0.78-0.149-1.075-0.389
						l-2.224,2.779c0.319,0.095,0.688,0.152,1.126,0.152c3.183,0,6.015,0,7.706,0s4.523,0,7.706,0c3.182,0,2.991-2.791,2.991-4.187
						c0-1.395,0-3.044-0.043-5.665c-0.042-2.621-0.676-8.245-0.888-9.386c0.507,0.296,1.354,0.55,1.354,1.142
						c0,0.592,0,1.396,0,2.833c0,1.185,0.634,1.1,1.226,1.1s0.635-0.677,0.635-1.353c0-0.676,0-1.015,0-1.564
						C37.98,15.838,36.373,15.584,36.373,15.584z M30.533,33.04c-0.945,0-1.712-0.766-1.712-1.712c0-0.945,0.767-1.712,1.712-1.712
						s1.713,0.767,1.713,1.712C32.246,32.274,31.479,33.04,30.533,33.04z"/>
				</g>
			</g>
		</g>
	</g>
</g>
</svg>
