<?xml version="1.0" encoding="utf-8"?>
<!-- Generator: Adobe Illustrator 16.0.0, SVG Export Plug-In . SVG Version: 6.00 Build 0)  -->
<!DOCTYPE svg PUBLIC "-//W3C//DTD SVG 1.1//EN" "http://www.w3.org/Graphics/SVG/1.1/DTD/svg11.dtd">
<svg version="1.1" id="Layer_1" xmlns="http://www.w3.org/2000/svg" xmlns:xlink="http://www.w3.org/1999/xlink" x="0px" y="0px"
	 width="50px" height="50px" viewBox="0 0 50 50" enable-background="new 0 0 50 50" xml:space="preserve">
<g>
	<path fill="#FFFFFF" d="M13.463,27.3c-2.007,0-3.633,1.627-3.633,3.634c0,2.008,1.626,3.634,3.633,3.634
		c2.008,0,3.634-1.626,3.634-3.634C17.098,28.927,15.472,27.3,13.463,27.3z M13.463,33.025c-1.155,0-2.092-0.936-2.092-2.092
		c0-1.155,0.938-2.091,2.092-2.091c1.157,0,2.092,0.936,2.092,2.091C15.556,32.09,14.62,33.025,13.463,33.025z"/>
	<path fill="#FFFFFF" d="M37.691,27.3c-2.007,0-3.633,1.627-3.633,3.634c0,2.008,1.626,3.634,3.633,3.634
		c2.009,0,3.634-1.626,3.634-3.634C41.325,28.927,39.7,27.3,37.691,27.3z M37.691,33.025c-1.154,0-2.092-0.936-2.092-2.092
		c0-1.155,0.938-2.091,2.092-2.091c1.156,0,2.092,0.936,2.092,2.091C39.783,32.09,38.848,33.025,37.691,33.025z"/>
	<path fill="#FFFFFF" d="M37.433,20.914c-2.588-1.872-6.222-5.836-8.48-5.836c-2.258,0-7.158,0-8.094,0
		c-2.093,0-1.928,0.77-3.524,5.836c0,0-9.337,0-10.658,0c-1.322,0-2.974-0.166-2.974,3.029c0,0,0,0.577,0,1.891
		c0,1.315,0.006,3.683,2.588,3.683c0.569,0,1.148,0.032,2.256,0.083c0.588-2.169,2.563-3.766,4.918-3.766
		c2.558,0,4.668,1.884,5.037,4.34c0.037,0.002,0.063,0.004,0.063,0.004s8.079,0,14.09,0c0.367-2.457,2.479-4.344,5.038-4.344
		c2.509,0,4.59,1.813,5.016,4.2c1.689-0.3,3.59-0.58,3.59-3.539c0-0.613,0-1.147,0-2.276S42.577,20.914,37.433,20.914z
		 M24.507,20.914c0,0-3.305,0-4.621,0c0.749-4.708,1.399-4.433,2.226-4.433c0.825,0,2.396,0,2.396,0V20.914z M26.158,20.914v-4.433
		c0,0,1.941,0,2.726,0s2.479,1.211,5.575,4.433C31.939,20.914,26.158,20.914,26.158,20.914z"/>
</g>
</svg>
