<?xml version="1.0" encoding="utf-8"?>
<!-- Generator: Adobe Illustrator 16.0.0, SVG Export Plug-In . SVG Version: 6.00 Build 0)  -->
<!DOCTYPE svg PUBLIC "-//W3C//DTD SVG 1.1//EN" "http://www.w3.org/Graphics/SVG/1.1/DTD/svg11.dtd">
<svg version="1.1" id="Layer_1" xmlns="http://www.w3.org/2000/svg" xmlns:xlink="http://www.w3.org/1999/xlink" x="0px" y="0px"
	 width="50px" height="50px" viewBox="0 0 50 50" enable-background="new 0 0 50 50" xml:space="preserve">
<g>
	<circle fill="#00ADEF" cx="25" cy="25" r="25"/>
	<path fill="#FFFFFF" d="M40.05,16.742c-1.041,0.461-2.162,0.774-3.337,0.915c1.198-0.721,2.12-1.858,2.556-3.214
		c-1.124,0.666-2.366,1.149-3.689,1.409c-1.062-1.13-2.57-1.834-4.241-1.834c-3.209,0-5.81,2.601-5.81,5.81
		c0,0.456,0.053,0.899,0.151,1.323c-4.828-0.242-9.109-2.556-11.974-6.069c-0.5,0.858-0.787,1.855-0.787,2.92
		c0,2.016,1.025,3.794,2.585,4.836c-0.952-0.03-1.849-0.291-2.632-0.726c-0.002,0.023-0.002,0.049-0.002,0.073
		c0,2.815,2.004,5.163,4.661,5.696c-0.488,0.134-1.002,0.204-1.531,0.204c-0.374,0-0.739-0.037-1.093-0.104
		c0.738,2.308,2.885,3.988,5.426,4.034c-1.988,1.558-4.494,2.486-7.216,2.486c-0.468,0-0.929-0.026-1.384-0.081
		c2.57,1.648,5.623,2.611,8.905,2.611c10.685,0,16.528-8.854,16.528-16.53c0-0.252-0.005-0.504-0.018-0.752
		C38.285,18.929,39.271,17.906,40.05,16.742z"/>
</g>
</svg>
