<?xml version="1.0" encoding="utf-8"?>
<!-- Generator: Adobe Illustrator 16.0.0, SVG Export Plug-In . SVG Version: 6.00 Build 0)  -->
<!DOCTYPE svg PUBLIC "-//W3C//DTD SVG 1.1//EN" "http://www.w3.org/Graphics/SVG/1.1/DTD/svg11.dtd">
<svg version="1.1" id="Layer_1" xmlns="http://www.w3.org/2000/svg" xmlns:xlink="http://www.w3.org/1999/xlink" x="0px" y="0px"
	 width="50px" height="50px" viewBox="0 0 50 50" enable-background="new 0 0 50 50" xml:space="preserve">
<g>
	<path fill="#2880B9" d="M15.512,21.864c-5.052,5.05-7.825,6.979-7.825,11.302c0,4.32,3.504,7.824,7.825,7.824
		c4.32,0,7.823-3.504,7.823-7.824C23.335,28.844,20.562,26.914,15.512,21.864z"/>
	<path fill="#3398DB" d="M15.512,21.864V40.99c4.32,0,7.823-3.504,7.823-7.824C23.335,28.844,20.562,26.914,15.512,21.864z"/>
</g>
<g>
	<path fill="#E57D21" d="M26.645,4.957c-5.05,5.05-7.824,6.98-7.824,11.301s3.503,7.824,7.824,7.824
		c4.321,0,7.824-3.503,7.824-7.824S31.695,10.007,26.645,4.957z M26.645,21.283c-1.897,0-3.436-1.538-3.436-3.435
		s1.218-2.744,3.436-4.962c2.218,2.218,3.436,3.065,3.436,4.962S28.542,21.283,26.645,21.283z"/>
	<path fill="#F39C12" d="M26.645,4.957v7.928c2.218,2.218,3.436,3.065,3.436,4.962s-1.538,3.435-3.436,3.435v2.799
		c4.321,0,7.824-3.503,7.824-7.824S31.695,10.007,26.645,4.957z"/>
</g>
<g>
	<polygon fill="#16A085" points="42.125,30.107 35.759,30.107 39.313,19.805 28.068,33.861 34.45,33.861 30.879,44.18 	"/>
	<polygon fill="#1ABC9B" points="28.068,33.861 34.45,33.861 39.313,19.805 	"/>
</g>
</svg>
